<?xml version="1.0" encoding="utf-8"?>
<!-- Generator: Adobe Illustrator 24.1.2, SVG Export Plug-In . SVG Version: 6.00 Build 0)  -->
<svg version="1.1" id="레이어_1" xmlns="http://www.w3.org/2000/svg" xmlns:xlink="http://www.w3.org/1999/xlink" x="0px"
	 y="0px" viewBox="0 0 500 500" style="enable-background:new 0 0 500 500;" xml:space="preserve">
<style type="text/css">
	.st0{fill-rule:evenodd;clip-rule:evenodd;fill:#F9B41D;}
	.st1{fill-rule:evenodd;clip-rule:evenodd;fill:#E30420;}
	.st2{fill-rule:evenodd;clip-rule:evenodd;fill:#FFFFFF;}
	.st3{fill:none;stroke:#FFFFFF;stroke-width:0.216;stroke-miterlimit:2.6131;}
</style>
<g>
	<polygon class="st0" points="345.9,392.8 353.3,392.6 360.6,392 367.7,391.1 374.8,389.9 381.7,388.3 388.4,386.3 395.1,384.1 
		401.6,381.5 408,378.6 414.1,375.5 420.1,372 425.9,368.3 431.5,364.3 436.9,360.1 442.1,355.6 447.1,350.8 451.9,345.9 
		456.3,340.7 460.6,335.3 464.6,329.7 468.3,323.9 471.8,317.9 474.9,311.7 477.8,305.4 480.3,298.8 482.6,292.2 484.5,285.4 
		486.1,278.5 487.4,271.4 488.3,264.3 488.8,257 489,249.7 488.8,242.3 488.3,235.1 487.4,228 486.1,221 484.5,214.1 482.6,207.4 
		480.3,200.7 477.8,194.2 474.9,187.9 471.8,181.8 468.3,175.8 464.6,170 460.6,164.4 456.3,159.1 451.9,153.9 447.1,148.9 
		442.1,144.2 436.9,139.7 431.5,135.5 425.9,131.5 420.1,127.8 414.1,124.3 408,121.2 401.6,118.3 395.1,115.8 388.4,113.5 
		381.7,111.6 374.8,110 367.7,108.7 360.6,107.8 353.3,107.3 345.9,107.1 338.6,107.3 331.3,107.8 324.2,108.7 317.1,110 
		310.3,111.6 303.5,113.5 296.9,115.8 290.4,118.3 284,121.2 277.9,124.3 271.9,127.8 266.2,131.5 260.6,135.5 255.2,139.7 
		250,144.2 245.1,148.9 240.3,153.9 235.9,159.1 231.6,164.4 227.7,170 224,175.8 220.5,181.8 217.4,187.9 214.5,194.2 212,200.7 
		209.7,207.4 207.8,214.1 206.2,221 205,228 204.1,235.1 203.5,242.3 203.3,249.7 203.5,257 204.1,264.3 205,271.4 206.2,278.5 
		207.8,285.4 209.7,292.2 212,298.8 214.5,305.4 217.4,311.7 220.5,317.9 224,323.9 227.7,329.7 231.6,335.3 235.9,340.7 
		240.3,345.9 245.1,350.8 250,355.6 255.2,360.1 260.6,364.3 266.2,368.3 271.9,372 277.9,375.5 284,378.6 290.4,381.5 296.9,384.1 
		303.5,386.3 310.3,388.3 317.1,389.9 324.2,391.1 331.3,392 338.6,392.6 345.9,392.8 345.9,392.8 	"/>
	<polygon class="st1" points="154.8,392.8 162.1,392.6 169.4,392 176.6,391.1 183.6,389.9 190.5,388.3 197.3,386.3 203.9,384.1 
		210.4,381.5 216.7,378.6 222.8,375.5 228.8,372 234.6,368.3 240.1,364.3 245.5,360.1 250.7,355.6 255.7,350.8 260.4,345.9 
		264.9,340.7 269.1,335.3 273.1,329.7 276.8,323.9 280.2,317.9 283.4,311.7 286.2,305.4 288.8,298.8 291,292.2 292.9,285.4 
		294.5,278.5 295.7,271.4 296.7,264.3 297.2,257 297.4,249.7 297.2,242.3 296.7,235.1 295.7,228 294.5,221 292.9,214.1 291,207.4 
		288.8,200.7 286.2,194.2 283.4,187.9 280.2,181.8 276.8,175.8 273.1,170 269.1,164.4 264.9,159.1 260.4,153.9 255.7,148.9 
		250.7,144.2 245.5,139.7 240.1,135.5 234.6,131.5 228.8,127.8 222.8,124.3 216.7,121.2 210.4,118.3 203.9,115.8 197.3,113.5 
		190.5,111.6 183.6,110 176.6,108.7 169.4,107.8 162.1,107.3 154.8,107.1 147.5,107.3 140.2,107.8 133,108.7 126,110 119.1,111.6 
		112.3,113.5 105.6,115.8 99.1,118.3 92.8,121.2 86.6,124.3 80.6,127.8 74.8,131.5 69.2,135.5 63.8,139.7 58.6,144.2 53.6,148.9 
		48.9,153.9 44.4,159.1 40.2,164.4 36.2,170 32.4,175.8 29,181.8 25.8,187.9 23,194.2 20.4,200.7 18.1,207.4 16.2,214.1 14.6,221 
		13.4,228 12.4,235.1 11.9,242.3 11.7,249.7 11.9,257 12.4,264.3 13.4,271.4 14.6,278.5 16.2,285.4 18.1,292.2 20.4,298.8 23,305.4 
		25.8,311.7 29,317.9 32.4,323.9 36.2,329.7 40.2,335.3 44.4,340.7 48.9,345.9 53.6,350.8 58.6,355.6 63.8,360.1 69.2,364.3 
		74.8,368.3 80.6,372 86.6,375.5 92.8,378.6 99.1,381.5 105.6,384.1 112.3,386.3 119.1,388.3 126,389.9 133,391.1 140.2,392 
		147.5,392.6 154.8,392.8 154.8,392.8 	"/>
	<polygon class="st0" points="233.6,161.9 309.5,161.9 309.5,154.1 240.2,154.1 233.6,161.9 233.6,161.9 	"/>
	<polygon class="st0" points="222.3,179.1 309.5,179.1 309.5,171.4 226.9,171.4 222.3,179.1 222.3,179.1 	"/>
	<polygon class="st0" points="213.8,196.3 309.5,196.3 309.5,188.6 217.2,188.6 213.8,196.3 213.8,196.3 	"/>
	<polygon class="st0" points="208,213.6 309.5,213.6 309.5,205.8 210.4,205.8 208,213.6 208,213.6 	"/>
	<polygon class="st0" points="211.3,296.9 309.8,296.9 309.8,289.2 208.9,289.2 211.3,296.9 211.3,296.9 	"/>
	<polygon class="st0" points="218.6,314.2 309.8,314.2 309.8,306.4 215,306.4 218.6,314.2 218.6,314.2 	"/>
	<polygon class="st0" points="228.8,331.4 309.8,331.4 309.8,323.6 224,323.6 228.8,331.4 228.8,331.4 	"/>
	<polygon class="st0" points="242.9,348.6 309.8,348.6 309.8,340.8 236.1,340.8 242.9,348.6 242.9,348.6 	"/>
	<polygon class="st0" points="204.5,230.8 309.5,230.8 309.5,223 206,223 204.5,230.8 204.5,230.8 	"/>
	<polygon class="st0" points="268.5,279.7 308.6,279.7 308.6,272 270,272 268.5,279.7 268.5,279.7 	"/>
	<polygon class="st0" points="271.7,262.5 308.6,262.5 308.6,254.7 273.2,254.7 271.7,262.5 271.7,262.5 	"/>
	<polygon class="st0" points="201.9,254.7 212.3,254.7 212.3,262.5 202.4,262.5 201.9,254.7 201.9,254.7 	"/>
	<polygon class="st2" points="182.5,245.3 181.8,245.3 181.1,245.2 180.5,245.1 179.9,245 179.3,244.9 178.7,244.8 178,244.7 
		177.4,244.6 176.7,244.5 175.9,244.5 175.1,244.4 174.1,244.4 173.1,244.4 172,244.4 170.8,244.5 169.4,244.6 168.4,244.7 
		167.5,244.9 166.7,245.2 166,245.5 165.3,245.8 164.7,246.2 164.2,246.7 163.7,247.1 163.4,247.6 163.2,248.2 163.1,248.7 
		163.1,249.3 163.3,249.9 163.4,250.6 163.8,251.2 164.3,251.8 165.3,252.7 166.4,253.5 167.8,254.1 169.2,254.6 170.8,255.1 
		172.4,255.6 173.9,256.2 175.5,256.8 176.9,257.7 178.3,258.7 179.5,259.9 180.5,261.4 181.3,263.2 181.8,265.4 181.9,268 
		181.8,271 181.4,273.3 180.8,275.2 180.1,277.1 179.1,278.7 178,280.1 176.7,281.3 175.4,282.3 173.9,283.2 172.4,284 170.8,284.6 
		169.1,285.1 167.4,285.5 165.8,285.7 164.2,285.9 162.6,286 161.1,286 159.1,286 157.1,286 155.4,286 153.9,285.9 152.4,285.9 
		151.1,285.8 150,285.7 148.8,285.6 147.8,285.5 146.9,285.3 146,285.1 145.2,284.9 144.4,284.7 143.6,284.4 142.8,284.1 142,283.8 
		144.2,273.2 144.6,273.3 145.1,273.4 145.8,273.6 146.6,273.8 147.5,274 148.5,274.2 149.5,274.4 150.7,274.6 151.9,274.8 
		153.1,275 154.4,275.1 155.8,275.3 157.2,275.3 158.6,275.4 160,275.4 161.4,275.3 162.8,275 163.9,274.7 164.7,274.1 165.4,273.5 
		165.9,272.8 166.3,272 166.5,271.2 166.7,270.5 166.8,269.1 166.4,267.9 165.6,267 164.4,266.1 162.9,265.4 161.2,264.7 159.4,264 
		157.5,263.2 155.5,262.4 153.7,261.4 152,260.1 150.5,258.6 149.3,256.8 148.4,254.6 148,252 148,248.9 148.3,247.1 148.6,245.3 
		149.1,243.6 149.7,242.1 150.4,240.6 151.3,239.4 152.3,238.2 153.5,237.1 154.9,236.2 156.5,235.4 158.2,234.7 160.1,234.2 
		162.3,233.8 164.7,233.4 167.3,233.2 170.1,233.2 171.9,233.2 173.5,233.2 175,233.3 176.4,233.3 177.6,233.4 178.7,233.5 
		179.6,233.6 180.5,233.7 181.3,233.8 182,233.9 182.6,234 183.2,234.1 183.7,234.2 184.1,234.3 184.5,234.4 184.9,234.4 
		182.5,245.3 182.5,245.3 	"/>
	<polyline class="st3" points="182.5,245.3 182.5,245.3 181.8,245.3 181.1,245.2 180.5,245.1 179.9,245 179.3,244.9 178.7,244.8 
		178,244.7 177.4,244.6 176.7,244.5 175.9,244.5 175.1,244.4 174.1,244.4 173.1,244.4 172,244.4 170.8,244.5 169.4,244.6 
		169.4,244.6 168.4,244.7 167.5,244.9 166.7,245.2 166,245.5 165.3,245.8 164.7,246.2 164.2,246.7 163.7,247.1 163.4,247.6 
		163.2,248.2 163.1,248.7 163.1,249.3 163.3,249.9 163.4,250.6 163.8,251.2 164.3,251.8 164.3,251.8 165.3,252.7 166.4,253.5 
		167.8,254.1 169.2,254.6 170.8,255.1 172.4,255.6 173.9,256.2 175.5,256.8 176.9,257.7 178.3,258.7 179.5,259.9 180.5,261.4 
		181.3,263.2 181.8,265.4 181.9,268 181.8,271 181.8,271 181.4,273.3 180.8,275.2 180.1,277.1 179.1,278.7 178,280.1 176.7,281.3 
		175.4,282.3 173.9,283.2 172.4,284 170.8,284.6 169.1,285.1 167.4,285.5 165.8,285.7 164.2,285.9 162.6,286 161.1,286 161.1,286 
		159.1,286 157.1,286 155.4,286 153.9,285.9 152.4,285.9 151.1,285.8 150,285.7 148.8,285.6 147.8,285.5 146.9,285.3 146,285.1 
		145.2,284.9 144.4,284.7 143.6,284.4 142.8,284.1 142,283.8 144.2,273.2 144.2,273.2 144.6,273.3 145.1,273.4 145.8,273.6 
		146.6,273.8 147.5,274 148.5,274.2 149.5,274.4 150.7,274.6 151.9,274.8 153.1,275 154.4,275.1 155.8,275.3 157.2,275.3 
		158.6,275.4 160,275.4 161.4,275.3 161.4,275.3 162.8,275 163.9,274.7 164.7,274.1 165.4,273.5 165.9,272.8 166.3,272 166.5,271.2 
		166.7,270.5 166.7,270.5 166.8,269.1 166.4,267.9 165.6,267 164.4,266.1 162.9,265.4 161.2,264.7 159.4,264 157.5,263.2 
		155.5,262.4 153.7,261.4 152,260.1 150.5,258.6 149.3,256.8 148.4,254.6 148,252 148,248.9 148,248.9 148.3,247.1 148.6,245.3 
		149.1,243.6 149.7,242.1 150.4,240.6 151.3,239.4 152.3,238.2 153.5,237.1 154.9,236.2 156.5,235.4 158.2,234.7 160.1,234.2 
		162.3,233.8 164.7,233.4 167.3,233.2 170.1,233.2 170.1,233.2 171.9,233.2 173.5,233.2 175,233.3 176.4,233.3 177.6,233.4 
		178.7,233.5 179.6,233.6 180.5,233.7 181.3,233.8 182,233.9 182.6,234 183.2,234.1 183.7,234.2 184.1,234.3 184.5,234.4 
		184.9,234.4 182.5,245.3 	"/>
	<polygon class="st2" points="193.9,222.5 207.2,222.5 205.3,234.2 213.3,234.2 211.6,245.1 203.1,244.8 198.5,271.7 198.4,272.7 
		198.7,273.5 199.1,274.1 199.8,274.7 200.6,275 201.6,275.3 202.7,275.5 203.8,275.6 204.9,275.5 205.8,275.4 206.7,275.3 
		207.5,275.1 208.1,274.9 208.5,274.8 208.8,274.7 208.9,274.6 207.2,283.6 206.9,283.8 206.6,284 206.2,284.2 205.9,284.4 
		205.6,284.5 205.2,284.7 204.7,284.8 204.3,285 203.8,285.1 203.3,285.2 202.8,285.3 202.2,285.4 201.6,285.5 200.8,285.6 
		200.1,285.7 199.2,285.8 195.6,285.8 193.7,285.6 192,285.5 190.4,285.2 189.1,284.8 188,284.4 187.1,283.9 186.3,283.3 
		185.7,282.7 185.2,282 184.8,281.2 184.6,280.4 184.5,279.5 184.4,278.5 184.4,277.4 184.5,276.3 184.7,275.1 193.9,222.5 
		193.9,222.5 	"/>
	<polyline class="st3" points="193.9,222.5 207.2,222.5 205.3,234.2 213.3,234.2 211.6,245.1 203.1,244.8 198.5,271.7 198.5,271.7 
		198.4,272.7 198.7,273.5 199.1,274.1 199.8,274.7 200.6,275 201.6,275.3 202.7,275.5 203.8,275.6 203.8,275.6 204.9,275.5 
		205.8,275.4 206.7,275.3 207.5,275.1 208.1,274.9 208.5,274.8 208.8,274.7 208.9,274.6 207.2,283.6 207.2,283.6 206.9,283.8 
		206.6,284 206.2,284.2 205.9,284.4 205.6,284.5 205.2,284.7 204.7,284.8 204.3,285 203.8,285.1 203.3,285.2 202.8,285.3 
		202.2,285.4 201.6,285.5 200.8,285.6 200.1,285.7 199.2,285.8 195.6,285.8 195.6,285.8 193.7,285.6 192,285.5 190.4,285.2 
		189.1,284.8 188,284.4 187.1,283.9 186.3,283.3 185.7,282.7 185.2,282 184.8,281.2 184.6,280.4 184.5,279.5 184.4,278.5 
		184.4,277.4 184.5,276.3 184.7,275.1 193.9,222.5 	"/>
	<polygon class="st2" points="224,263.2 223.8,264.1 223.8,264.9 223.9,265.8 224.1,266.8 224.4,267.7 224.8,268.5 225.3,269.5 
		225.9,270.3 226.6,271.1 227.3,271.8 228.1,272.5 228.9,273.1 229.8,273.6 230.8,274.1 231.7,274.4 232.7,274.6 233.9,274.8 
		235.1,275 236.4,275.1 237.6,275.2 238.9,275.2 240.2,275.2 241.5,275.2 242.8,275.1 244.1,274.9 245.4,274.7 246.7,274.4 
		248,273.9 249.4,273.4 250.7,272.8 252.1,272.1 253.5,271.2 251.6,283.1 250.8,283.5 250,283.9 249.3,284.2 248.5,284.4 
		247.8,284.7 247,284.9 246.3,285.1 245.4,285.3 244.6,285.4 243.6,285.5 242.6,285.6 241.5,285.7 240.2,285.7 238.9,285.7 
		237.5,285.8 235.9,285.8 233.5,285.7 231.1,285.5 228.7,285.2 226.3,284.6 223.9,283.9 221.6,282.9 219.5,281.7 217.5,280.3 
		215.6,278.7 213.9,276.7 212.5,274.5 211.4,272 210.6,269.1 210,265.9 209.9,262.3 210.1,258.4 210.3,256.8 210.6,255.1 211,253.2 
		211.5,251.1 212.3,249.1 213.1,247 214.2,244.9 215.6,242.9 217.1,240.9 219,239.1 221.1,237.5 223.5,236 226.3,234.8 229.5,233.9 
		232.9,233.4 236.8,233.2 238.7,233.2 240.7,233.4 242.7,233.8 244.6,234.2 246.6,235 248.4,235.8 250.2,237 251.8,238.3 253.2,240 
		254.4,241.9 255.4,244.1 256,246.7 256.4,249.6 256.5,252.8 256.1,256.5 255.4,260.5 255.2,263.5 220.1,263.5 222.3,254 243.4,254 
		243.5,252.8 243.4,251.6 243.3,250.6 243.1,249.6 242.8,248.7 242.5,247.9 242,247.2 241.5,246.5 240.9,245.9 240.3,245.4 
		239.6,245 238.8,244.6 238.1,244.3 237.3,244.1 236.5,244 235.6,243.9 234.7,243.9 233.8,244.1 233,244.3 232.2,244.5 231.4,244.9 
		230.7,245.4 229.9,245.9 229.3,246.5 228.7,247.2 228.1,247.9 227.6,248.6 227.1,249.5 226.7,250.3 226.4,251.3 226.1,252.3 
		225.9,253.3 224,263.2 224,263.2 	"/>
	<polyline class="st3" points="224,263.2 224,263.2 223.8,264.1 223.8,264.9 223.9,265.8 224.1,266.8 224.4,267.7 224.8,268.5 
		225.3,269.5 225.9,270.3 226.6,271.1 227.3,271.8 228.1,272.5 228.9,273.1 229.8,273.6 230.8,274.1 231.7,274.4 232.7,274.6 
		232.7,274.6 233.9,274.8 235.1,275 236.4,275.1 237.6,275.2 238.9,275.2 240.2,275.2 241.5,275.2 242.8,275.1 244.1,274.9 
		245.4,274.7 246.7,274.4 248,273.9 249.4,273.4 250.7,272.8 252.1,272.1 253.5,271.2 251.6,283.1 251.6,283.1 250.8,283.5 
		250,283.9 249.3,284.2 248.5,284.4 247.8,284.7 247,284.9 246.3,285.1 245.4,285.3 244.6,285.4 243.6,285.5 242.6,285.6 
		241.5,285.7 240.2,285.7 238.9,285.7 237.5,285.8 235.9,285.8 235.9,285.8 233.5,285.7 231.1,285.5 228.7,285.2 226.3,284.6 
		223.9,283.9 221.6,282.9 219.5,281.7 217.5,280.3 215.6,278.7 213.9,276.7 212.5,274.5 211.4,272 210.6,269.1 210,265.9 
		209.9,262.3 210.1,258.4 210.1,258.4 210.3,256.8 210.6,255.1 211,253.2 211.5,251.1 212.3,249.1 213.1,247 214.2,244.9 
		215.6,242.9 217.1,240.9 219,239.1 221.1,237.5 223.5,236 226.3,234.8 229.5,233.9 232.9,233.4 236.8,233.2 236.8,233.2 
		238.7,233.2 240.7,233.4 242.7,233.8 244.6,234.2 246.6,235 248.4,235.8 250.2,237 251.8,238.3 253.2,240 254.4,241.9 255.4,244.1 
		256,246.7 256.4,249.6 256.5,252.8 256.1,256.5 255.4,260.5 255.2,263.5 220.1,263.5 222.3,254 243.4,254 243.4,254 243.5,252.8 
		243.4,251.6 243.3,250.6 243.1,249.6 242.8,248.7 242.5,247.9 242,247.2 241.5,246.5 240.9,245.9 240.3,245.4 239.6,245 
		238.8,244.6 238.1,244.3 237.3,244.1 236.5,244 235.6,243.9 235.6,243.9 234.7,243.9 233.8,244.1 233,244.3 232.2,244.5 
		231.4,244.9 230.7,245.4 229.9,245.9 229.3,246.5 228.7,247.2 228.1,247.9 227.6,248.6 227.1,249.5 226.7,250.3 226.4,251.3 
		226.1,252.3 225.9,253.3 224,263.2 	"/>
	<polygon class="st2" points="338.9,237.1 338.2,236.7 337.6,236.5 336.9,236.1 336.2,235.8 335.5,235.5 334.7,235.2 333.9,234.9 
		333,234.6 332.1,234.4 331.2,234.2 330.1,234 329.1,233.9 328,233.8 326.9,233.7 325.8,233.7 324.6,233.7 323.4,233.7 322.1,233.8 
		320.8,233.9 319.5,234.1 318.1,234.5 316.8,235.1 315.4,235.7 314.1,236.6 312.8,237.7 311.5,238.9 310.3,240.5 309.1,242.2 
		308.1,244.4 307.1,246.8 306.2,249.5 305.4,252.5 305.1,254.3 304.9,256 304.8,257.7 304.9,259.3 305,260.9 305.3,262.5 
		305.8,263.9 306.3,265.4 307,266.7 307.9,267.9 308.9,269 310.1,270 311.4,270.9 312.9,271.6 314.5,272.3 316.3,272.7 316.9,272.8 
		317.7,273 318.5,273.1 319.5,273.2 320.6,273.3 321.7,273.3 322.9,273.3 324.1,273.2 325.3,273 326.6,272.8 327.8,272.4 329,272.1 
		330.2,271.5 331.3,270.9 332.3,270.1 333.3,269.3 331.1,282.1 330.8,282.4 330.5,282.7 330.1,283 329.7,283.3 329.2,283.7 
		328.5,284 327.7,284.3 326.9,284.6 325.8,285 324.5,285.2 323.1,285.4 321.4,285.6 319.5,285.7 317.3,285.7 314.9,285.7 
		312.2,285.6 310,285.3 307.7,284.8 305.5,284.1 303.3,283.1 301.2,282 299.2,280.5 297.2,278.9 295.5,276.9 293.9,274.8 
		292.5,272.3 291.4,269.7 290.5,266.7 289.9,263.5 289.7,260.1 289.8,256.3 290.4,252.3 290.7,250.3 291.2,248.4 291.7,246.5 
		292.1,244.7 292.7,243.1 293.3,241.4 293.9,239.8 294.6,238.3 295.3,236.8 296,235.4 296.9,234 297.7,232.8 298.6,231.6 
		299.6,230.4 300.5,229.4 301.5,228.4 302.6,227.4 303.7,226.5 304.9,225.7 306.1,224.9 307.4,224.2 308.7,223.5 310.1,223 
		311.5,222.4 312.9,222 314.4,221.6 316,221.2 317.6,220.9 319.3,220.7 321,220.5 322.7,220.4 324.6,220.4 326.1,220.4 327.6,220.5 
		329,220.7 330.5,220.8 331.8,221 333.1,221.3 334.4,221.6 335.5,221.9 336.7,222.1 337.6,222.4 338.5,222.7 339.3,223 340,223.3 
		340.6,223.4 341,223.6 341.3,223.7 338.9,237.1 338.9,237.1 	"/>
	<polyline class="st3" points="338.9,237.1 338.9,237.1 338.2,236.7 337.6,236.5 336.9,236.1 336.2,235.8 335.5,235.5 334.7,235.2 
		333.9,234.9 333,234.6 332.1,234.4 331.2,234.2 330.1,234 329.1,233.9 328,233.8 326.9,233.7 325.8,233.7 324.6,233.7 324.6,233.7 
		323.4,233.7 322.1,233.8 320.8,233.9 319.5,234.1 318.1,234.5 316.8,235.1 315.4,235.7 314.1,236.6 312.8,237.7 311.5,238.9 
		310.3,240.5 309.1,242.2 308.1,244.4 307.1,246.8 306.2,249.5 305.4,252.5 305.4,252.5 305.1,254.3 304.9,256 304.8,257.7 
		304.9,259.3 305,260.9 305.3,262.5 305.8,263.9 306.3,265.4 307,266.7 307.9,267.9 308.9,269 310.1,270 311.4,270.9 312.9,271.6 
		314.5,272.3 316.3,272.7 316.3,272.7 316.9,272.8 317.7,273 318.5,273.1 319.5,273.2 320.6,273.3 321.7,273.3 322.9,273.3 
		324.1,273.2 325.3,273 326.6,272.8 327.8,272.4 329,272.1 330.2,271.5 331.3,270.9 332.3,270.1 333.3,269.3 331.1,282.1 
		331.1,282.1 330.8,282.4 330.5,282.7 330.1,283 329.7,283.3 329.2,283.7 328.5,284 327.7,284.3 326.9,284.6 325.8,285 324.5,285.2 
		323.1,285.4 321.4,285.6 319.5,285.7 317.3,285.7 314.9,285.7 312.2,285.6 312.2,285.6 310,285.3 307.7,284.8 305.5,284.1 
		303.3,283.1 301.2,282 299.2,280.5 297.2,278.9 295.5,276.9 293.9,274.8 292.5,272.3 291.4,269.7 290.5,266.7 289.9,263.5 
		289.7,260.1 289.8,256.3 290.4,252.3 290.4,252.3 290.7,250.3 291.2,248.4 291.7,246.5 292.1,244.7 292.7,243.1 293.3,241.4 
		293.9,239.8 294.6,238.3 295.3,236.8 296,235.4 296.9,234 297.7,232.8 298.6,231.6 299.6,230.4 300.5,229.4 301.5,228.4 
		302.6,227.4 303.7,226.5 304.9,225.7 306.1,224.9 307.4,224.2 308.7,223.5 310.1,223 311.5,222.4 312.9,222 314.4,221.6 316,221.2 
		317.6,220.9 319.3,220.7 321,220.5 322.7,220.4 324.6,220.4 324.6,220.4 326.1,220.4 327.6,220.5 329,220.7 330.5,220.8 331.8,221 
		333.1,221.3 334.4,221.6 335.5,221.9 336.7,222.1 337.6,222.4 338.5,222.7 339.3,223 340,223.3 340.6,223.4 341,223.6 341.3,223.7 
		338.9,237.1 	"/>
	<polygon class="st2" points="457.5,285.8 444.1,285.8 445.1,280.4 445.1,280 444.3,280.9 443.5,281.8 442.7,282.6 441.8,283.2 
		441,283.9 440.1,284.4 439.2,284.8 438.3,285.3 437.4,285.6 436.5,285.8 435.6,286.1 434.6,286.2 433.6,286.4 432.7,286.5 
		431.8,286.5 430.8,286.5 428.3,286.3 426,285.8 423.9,285 421.9,283.9 420.2,282.5 418.7,280.8 417.3,279 416.2,277 415.2,274.9 
		414.4,272.6 413.9,270.2 413.5,267.8 413.4,265.3 413.4,262.8 413.6,260.4 414.1,257.9 414.8,255.1 415.7,252.4 416.7,249.9 
		417.9,247.6 419.1,245.4 420.6,243.5 422.1,241.8 423.7,240.2 425.4,238.8 427.1,237.6 429,236.5 430.8,235.7 432.7,235 
		434.7,234.6 436.6,234.3 438.6,234.2 440,234.2 441.3,234.4 442.6,234.6 443.7,235 444.8,235.3 445.8,235.8 446.7,236.3 
		447.6,236.8 448.4,237.4 449.1,238 449.7,238.7 450.3,239.3 450.8,239.9 451.2,240.5 451.6,241.1 451.9,241.7 451.9,241.7 
		455.3,222.8 468.4,222.8 457.5,285.8 457.5,285.8 	"/>
	<polyline class="st3" points="457.5,285.8 444.1,285.8 445.1,280.4 445.1,280 445.1,280 444.3,280.9 443.5,281.8 442.7,282.6 
		441.8,283.2 441,283.9 440.1,284.4 439.2,284.8 438.3,285.3 437.4,285.6 436.5,285.8 435.6,286.1 434.6,286.2 433.6,286.4 
		432.7,286.5 431.8,286.5 430.8,286.5 430.8,286.5 428.3,286.3 426,285.8 423.9,285 421.9,283.9 420.2,282.5 418.7,280.8 417.3,279 
		416.2,277 415.2,274.9 414.4,272.6 413.9,270.2 413.5,267.8 413.4,265.3 413.4,262.8 413.6,260.4 414.1,257.9 414.1,257.9 
		414.8,255.1 415.7,252.4 416.7,249.9 417.9,247.6 419.1,245.4 420.6,243.5 422.1,241.8 423.7,240.2 425.4,238.8 427.1,237.6 
		429,236.5 430.8,235.7 432.7,235 434.7,234.6 436.6,234.3 438.6,234.2 438.6,234.2 440,234.2 441.3,234.4 442.6,234.6 443.7,235 
		444.8,235.3 445.8,235.8 446.7,236.3 447.6,236.8 448.4,237.4 449.1,238 449.7,238.7 450.3,239.3 450.8,239.9 451.2,240.5 
		451.6,241.1 451.9,241.7 451.9,241.7 455.3,222.8 468.4,222.8 457.5,285.8 	"/>
	<polygon class="st0" points="435.7,274.1 437,274 438.3,273.7 439.4,273.4 440.5,272.9 441.5,272.3 442.5,271.6 443.4,270.8 
		444.2,269.9 445,268.9 445.6,267.9 446.3,266.8 446.8,265.6 447.3,264.4 447.7,263.1 448,261.8 448.2,260.5 448.5,259.2 
		448.6,257.8 448.6,256.5 448.6,255.1 448.4,253.9 448.2,252.7 447.9,251.5 447.5,250.4 447,249.5 446.5,248.5 445.8,247.8 
		445.1,247.1 444.3,246.5 443.4,246.1 442.5,245.9 441.5,245.8 440.2,245.9 439,246.1 437.9,246.5 436.8,247 435.8,247.6 
		434.8,248.4 434,249.2 433.2,250.1 432.5,251.1 431.8,252.3 431.2,253.4 430.7,254.7 430.2,256 429.8,257.3 429.4,258.7 
		429.1,260.1 428.9,262.2 429,264.5 429.3,266.9 429.9,269.1 430.9,271.1 432.1,272.7 433.7,273.7 435.7,274.1 435.7,274.1 	"/>
	<polygon class="st2" points="139.8,275.1 137.9,285.8 125.7,285.8 126.1,283.8 126.3,282 126.5,280.7 126.7,280 126,280.7 
		125.2,281.5 124.3,282.2 123.3,282.9 122.2,283.6 121,284.2 119.7,284.7 118.4,285.2 117,285.6 115.6,286 114.2,286.3 112.8,286.5 
		111.4,286.6 110,286.6 108.6,286.5 107.3,286.3 105.6,285.8 104.1,285.4 102.7,284.7 101.5,284 100.5,283.2 99.5,282.4 98.7,281.5 
		98.1,280.5 97.5,279.5 97,278.4 96.6,277.4 96.3,276.3 96.1,275.2 96,274.1 95.9,273 95.9,272 96,270.1 96.3,268.3 96.8,266.6 
		97.4,265 98.2,263.4 99.1,262 100.1,260.7 101.2,259.5 102.5,258.4 103.8,257.4 105.2,256.4 106.6,255.7 108.2,255 109.8,254.5 
		111.4,254 113.1,253.8 113.2,253.8 113.4,253.7 113.8,253.7 114.3,253.6 114.9,253.5 115.6,253.5 116.3,253.4 117.1,253.3 
		117.9,253.2 118.7,253.1 119.6,253 120.4,252.9 121.1,252.9 121.9,252.8 122.5,252.8 123.1,252.8 124.2,252.8 125.3,252.8 
		126.4,252.9 127.5,252.9 128.3,252.9 129,253 129.5,253 129.6,253 129.7,252.7 130,251.8 130.3,250.8 130.3,249.9 130.2,248.8 
		129.7,247.9 129.1,247 128.4,246.3 127.5,245.7 126.4,245.2 125.3,244.9 124,244.8 122.7,244.8 121.2,244.7 119.7,244.7 
		118.2,244.8 116.6,244.9 115.1,245 113.5,245.2 112,245.4 110.6,245.6 109.2,245.8 107.9,246 106.8,246.3 105.7,246.6 104.9,246.9 
		104.2,247.2 103.7,247.5 107.1,235.9 108.1,235.4 109.2,235.1 110.4,234.7 111.5,234.5 112.7,234.2 113.9,234 115.2,233.9 
		116.5,233.8 117.8,233.7 119.2,233.6 120.7,233.6 122.2,233.6 123.7,233.6 125.3,233.6 127,233.6 128.7,233.7 130,233.8 131.5,234 
		132.9,234.3 134.5,234.8 136,235.3 137.4,236 138.9,236.8 140.2,237.8 141.4,238.8 142.5,240 143.5,241.3 144.2,242.7 144.7,244.3 
		144.9,245.9 144.9,247.7 144.7,249.7 139.8,275.1 139.8,275.1 	"/>
	<polyline class="st3" points="139.8,275.1 137.9,285.8 125.7,285.8 125.7,285.8 126.1,283.8 126.3,282 126.5,280.7 126.7,280 
		126.7,280 126,280.7 125.2,281.5 124.3,282.2 123.3,282.9 122.2,283.6 121,284.2 119.7,284.7 118.4,285.2 117,285.6 115.6,286 
		114.2,286.3 112.8,286.5 111.4,286.6 110,286.6 108.6,286.5 107.3,286.3 107.3,286.3 105.6,285.8 104.1,285.4 102.7,284.7 
		101.5,284 100.5,283.2 99.5,282.4 98.7,281.5 98.1,280.5 97.5,279.5 97,278.4 96.6,277.4 96.3,276.3 96.1,275.2 96,274.1 95.9,273 
		95.9,272 95.9,272 96,270.1 96.3,268.3 96.8,266.6 97.4,265 98.2,263.4 99.1,262 100.1,260.7 101.2,259.5 102.5,258.4 103.8,257.4 
		105.2,256.4 106.6,255.7 108.2,255 109.8,254.5 111.4,254 113.1,253.8 113.1,253.8 113.2,253.8 113.4,253.7 113.8,253.7 
		114.3,253.6 114.9,253.5 115.6,253.5 116.3,253.4 117.1,253.3 117.9,253.2 118.7,253.1 119.6,253 120.4,252.9 121.1,252.9 
		121.9,252.8 122.5,252.8 123.1,252.8 123.1,252.8 124.2,252.8 125.3,252.8 126.4,252.9 127.5,252.9 128.3,252.9 129,253 129.5,253 
		129.6,253 129.6,253 129.7,252.7 130,251.8 130.3,250.8 130.3,249.9 130.3,249.9 130.2,248.8 129.7,247.9 129.1,247 128.4,246.3 
		127.5,245.7 126.4,245.2 125.3,244.9 124,244.8 124,244.8 122.7,244.8 121.2,244.7 119.7,244.7 118.2,244.8 116.6,244.9 115.1,245 
		113.5,245.2 112,245.4 110.6,245.6 109.2,245.8 107.9,246 106.8,246.3 105.7,246.6 104.9,246.9 104.2,247.2 103.7,247.5 
		107.1,235.9 107.1,235.9 108.1,235.4 109.2,235.1 110.4,234.7 111.5,234.5 112.7,234.2 113.9,234 115.2,233.9 116.5,233.8 
		117.8,233.7 119.2,233.6 120.7,233.6 122.2,233.6 123.7,233.6 125.3,233.6 127,233.6 128.7,233.7 128.7,233.7 130,233.8 131.5,234 
		132.9,234.3 134.5,234.8 136,235.3 137.4,236 138.9,236.8 140.2,237.8 141.4,238.8 142.5,240 143.5,241.3 144.2,242.7 144.7,244.3 
		144.9,245.9 144.9,247.7 144.7,249.7 139.8,275.1 	"/>
	<polygon class="st1" points="128.2,262.5 128.1,262.3 127.9,262 127.6,261.9 127.2,261.8 126.6,261.7 126,261.7 125.3,261.7 
		124.6,261.7 123.8,261.7 123,261.8 122.2,261.9 121.4,262 120.7,262.1 120,262.2 119.5,262.4 118.9,262.5 118.6,262.6 118.2,262.8 
		117.7,263 117.1,263.2 116.5,263.5 115.9,263.8 115.2,264.2 114.6,264.5 113.9,265 113.3,265.5 112.7,266.1 112.2,266.7 
		111.7,267.3 111.4,268 111.1,268.7 110.9,269.5 110.9,271.1 111.1,272.4 111.6,273.4 112.2,274.1 113,274.6 113.8,274.9 114.5,275 
		115.3,275.1 116.8,275 118.1,274.9 119.3,274.7 120.4,274.4 121.4,274.1 122.3,273.6 123.1,273.2 123.8,272.7 124.5,272.2 
		125,271.6 125.5,271.1 125.9,270.5 126.3,269.9 126.5,269.4 126.8,268.8 126.9,268.3 127.3,266.9 127.6,265.3 127.9,263.8 
		128.2,262.5 128.2,262.5 	"/>
	<polygon class="st2" points="38.4,285.8 25.3,285.8 36.3,222.5 59,222.5 61.2,260.1 77,222.5 100.8,222.5 89.6,285.8 76.5,285.8 
		84.8,238.5 84.2,238.5 64.6,285.8 49.8,285.8 49.7,283.8 49.4,278.6 49,271.1 48.5,262.5 48,253.9 47.6,246.3 47.2,240.8 
		47.1,238.5 47,238.5 46.7,238.5 46.4,238.5 46.4,238.5 38.4,285.8 38.4,285.8 	"/>
	<polyline class="st3" points="38.4,285.8 25.3,285.8 36.3,222.5 59,222.5 61.2,260.1 77,222.5 100.8,222.5 89.6,285.8 76.5,285.8 
		84.8,238.5 84.2,238.5 64.6,285.8 49.8,285.8 49.8,285.8 49.7,283.8 49.4,278.6 49,271.1 48.5,262.5 48,253.9 47.6,246.3 
		47.2,240.8 47.1,238.5 47.1,238.5 47,238.5 46.7,238.5 46.4,238.5 46.4,238.5 38.4,285.8 	"/>
	<polygon class="st2" points="378.9,275.1 376.9,285.8 364.8,285.8 364.9,283.8 365,282.1 365,280.8 365.1,280.2 364.5,280.9 
		363.7,281.6 362.9,282.3 361.9,283 360.9,283.6 359.7,284.2 358.5,284.8 357.3,285.3 356,285.6 354.7,286 353.3,286.3 352,286.5 
		350.6,286.6 349.2,286.6 347.9,286.5 346.6,286.3 344.9,285.8 343.4,285.4 342,284.7 340.7,284 339.7,283.2 338.8,282.4 338,281.5 
		337.3,280.5 336.8,279.5 336.3,278.4 335.9,277.4 335.7,276.3 335.5,275.2 335.4,274.1 335.3,273 335.3,272 335.4,270.1 
		335.6,268.3 336.1,266.6 336.7,265 337.4,263.4 338.3,262 339.4,260.7 340.5,259.5 341.7,258.4 343,257.4 344.4,256.4 345.9,255.7 
		347.4,255 349,254.5 350.6,254 352.2,253.8 352.3,253.8 352.6,253.7 352.9,253.7 353.4,253.6 354,253.5 354.7,253.5 355.4,253.4 
		356.2,253.3 357,253.2 357.9,253.1 358.7,253 359.5,252.9 360.3,252.9 360.9,252.8 361.6,252.8 362.1,252.8 363.3,252.8 
		364.5,252.8 365.6,252.9 366.6,252.9 367.5,252.9 368.3,253 368.7,253 368.9,253 369,252.7 369.2,251.8 369.3,250.8 369.4,249.9 
		369.2,248.8 368.8,247.9 368.2,247 367.5,246.3 366.6,245.7 365.6,245.2 364.6,244.9 363.4,244.8 362,244.8 360.6,244.7 
		359.1,244.7 357.6,244.8 356,244.9 354.4,245 352.9,245.2 351.4,245.4 350,245.6 348.6,245.8 347.3,246 346.1,246.3 345.1,246.6 
		344.2,246.9 343.5,247.2 343,247.5 346.4,235.9 347.4,235.4 348.6,235.1 349.7,234.7 350.8,234.5 352,234.2 353.2,234 354.5,233.9 
		355.8,233.8 357.1,233.7 358.5,233.6 359.9,233.6 361.4,233.6 362.9,233.6 364.5,233.6 366.1,233.6 367.7,233.7 369.1,233.8 
		370.5,234 372,234.3 373.6,234.8 375.1,235.3 376.5,236 378,236.8 379.3,237.8 380.5,238.8 381.7,240 382.6,241.3 383.3,242.7 
		383.9,244.3 384.2,245.9 384.2,247.7 384,249.7 378.9,275.1 378.9,275.1 	"/>
	<polygon class="st2" points="376.9,286.1 377.2,285.8 379.2,275.1 378.6,275 376.6,285.7 376.9,285.5 376.9,286.1 377.2,286.1 
		377.2,285.8 376.9,286.1 376.9,286.1 	"/>
	<polygon class="st2" points="364.6,285.8 364.8,286.1 376.9,286.1 376.9,285.5 364.8,285.5 365.1,285.8 364.6,285.8 364.5,286.1 
		364.8,286.1 364.6,285.8 364.6,285.8 	"/>
	<polygon class="st2" points="365.3,280.4 364.9,280 364.7,280.8 364.6,282.1 364.6,283.8 364.6,285.8 365.1,285.8 365.2,283.8 
		365.3,282.1 365.3,280.8 365.3,280.4 364.8,280 365.3,280.4 365.3,280.4 	"/>
	<polygon class="st2" points="346.6,286.6 346.6,286.6 347.9,286.8 349.2,286.9 350.6,286.9 352,286.8 353.4,286.6 354.7,286.3 
		356.1,285.9 357.4,285.6 358.6,285.1 359.9,284.5 361,283.9 362,283.2 363.1,282.6 363.9,281.9 364.7,281.1 365.3,280.4 364.8,280 
		364.2,280.7 363.5,281.4 362.7,282.1 361.8,282.8 360.7,283.3 359.6,283.9 358.4,284.5 357.2,285 356,285.4 354.6,285.7 353.3,286 
		352,286.2 350.6,286.3 349.2,286.3 347.9,286.2 346.7,286 346.7,286 346.6,286.6 346.6,286.6 	"/>
	<polygon class="st2" points="334.9,272 334.9,272 335,273 335.1,274.1 335.2,275.2 335.4,276.3 335.6,277.4 336,278.5 336.5,279.6 
		337.1,280.6 337.8,281.6 338.5,282.6 339.5,283.5 340.6,284.2 341.9,285 343.3,285.6 344.8,286.1 346.6,286.6 346.7,286 
		344.9,285.6 343.4,285.1 342.1,284.4 340.9,283.8 339.9,283 339,282.2 338.2,281.3 337.6,280.3 337,279.3 336.6,278.3 336.2,277.3 
		336,276.3 335.8,275.1 335.6,274.1 335.5,273 335.6,272 335.6,272 334.9,272 334.9,272 	"/>
	<polygon class="st2" points="352.2,253.5 352.2,253.5 350.5,253.8 348.9,254.2 347.3,254.7 345.8,255.4 344.3,256.2 342.8,257.1 
		341.5,258.1 340.3,259.3 339.1,260.5 338.1,261.8 337.1,263.3 336.4,264.9 335.8,266.5 335.4,268.3 335.1,270.1 334.9,272 
		335.6,272 335.6,270.1 335.9,268.3 336.4,266.7 337,265.1 337.7,263.6 338.6,262.2 339.6,260.9 340.7,259.7 341.9,258.6 
		343.2,257.6 344.6,256.7 346,256 347.5,255.3 349.1,254.8 350.6,254.3 352.2,254 352.2,254 352.2,253.5 352.2,253.5 	"/>
	<polygon class="st2" points="362.1,252.5 362.1,252.5 361.6,252.5 360.9,252.5 360.3,252.6 359.5,252.6 358.7,252.7 357.9,252.8 
		357,252.9 356.2,253 355.4,253.1 354.7,253.2 354,253.2 353.4,253.3 352.9,253.4 352.5,253.4 352.3,253.5 352.2,253.5 352.2,254 
		352.3,254 352.6,254 352.9,253.9 353.4,253.9 354,253.8 354.7,253.8 355.4,253.7 356.2,253.6 357,253.5 357.9,253.4 358.7,253.3 
		359.5,253.2 360.3,253.2 360.9,253.1 361.6,253.1 362.1,253.1 362.1,253.1 362.1,252.5 362.1,252.5 	"/>
	<polygon class="st2" points="368.6,253 368.9,252.7 368.7,252.7 368.3,252.7 367.5,252.6 366.6,252.5 365.6,252.5 364.5,252.5 
		363.3,252.5 362.1,252.5 362.1,253.1 363.3,253.1 364.5,253.1 365.6,253.2 366.6,253.2 367.5,253.2 368.3,253.3 368.7,253.3 
		368.9,253.3 369.2,253.1 368.9,253.3 369.2,253.4 369.2,253.1 368.6,253 368.6,253 	"/>
	<polygon class="st2" points="369.1,249.9 369.1,249.9 369,250.8 368.9,251.8 368.7,252.6 368.6,253 369.2,253.1 369.3,252.7 
		369.5,251.9 369.6,250.8 369.8,249.9 369.7,249.9 369.1,249.9 369.1,249.9 	"/>
	<polygon class="st2" points="363.4,245.1 363.4,245.2 364.5,245.2 365.5,245.5 366.5,245.9 367.3,246.5 368,247.2 368.5,248 
		368.9,248.9 369.1,249.9 369.7,249.9 369.5,248.8 369.1,247.7 368.5,246.8 367.7,246 366.8,245.4 365.7,244.9 364.6,244.6 
		363.4,244.5 363.4,244.5 363.4,245.1 363.4,245.1 	"/>
	<polygon class="st2" points="342.7,247.4 343.2,247.7 343.7,247.5 344.3,247.2 345.1,246.9 346.2,246.6 347.3,246.3 348.6,246.1 
		350,245.8 351.4,245.7 352.9,245.5 354.4,245.3 356,245.2 357.6,245.1 359.1,245.1 360.6,245.1 362,245.1 363.4,245.1 363.4,244.5 
		362,244.5 360.6,244.4 359.1,244.4 357.6,244.5 356,244.6 354.4,244.7 352.9,244.9 351.4,245.1 349.9,245.3 348.5,245.5 
		347.3,245.8 346.1,246 345,246.3 344.1,246.6 343.4,246.9 342.8,247.2 343.3,247.5 342.7,247.4 342.7,247.4 	"/>
	<polygon class="st2" points="346.3,235.6 346.1,235.8 342.7,247.4 343.3,247.5 346.7,235.9 346.5,236.2 346.3,235.6 346.1,235.6 
		346.1,235.8 346.3,235.6 346.3,235.6 	"/>
	<polygon class="st2" points="367.7,233.4 367.7,233.4 366.1,233.3 364.5,233.2 362.9,233.2 361.4,233.2 359.9,233.2 358.5,233.3 
		357.1,233.4 355.8,233.5 354.5,233.6 353.2,233.8 352,233.9 350.8,234.2 349.6,234.4 348.5,234.8 347.3,235.2 346.3,235.6 
		346.5,236.2 347.5,235.7 348.7,235.3 349.7,235 350.9,234.8 352.1,234.5 353.3,234.3 354.5,234.1 355.8,234 357.1,233.9 
		358.5,233.9 359.9,233.9 361.4,233.9 362.9,233.9 364.5,233.9 366.1,233.9 367.7,233.9 367.7,233.9 367.7,233.4 367.7,233.4 	"/>
	<polygon class="st2" points="384.3,249.7 384.3,249.7 384.5,247.7 384.5,245.9 384.2,244.2 383.6,242.6 382.9,241.1 381.9,239.8 
		380.7,238.6 379.5,237.5 378.1,236.6 376.7,235.7 375.2,235.1 373.7,234.5 372.1,234 370.6,233.7 369.1,233.5 367.7,233.4 
		367.7,233.9 369.1,234 370.5,234.3 372,234.6 373.5,235.1 375,235.6 376.4,236.3 377.8,237.1 379.1,238 380.4,239.1 381.4,240.2 
		382.4,241.4 383.1,242.8 383.6,244.3 383.9,245.9 383.9,247.7 383.7,249.6 383.7,249.6 384.3,249.7 384.3,249.7 	"/>
	<polygon class="st2" points="379.2,275.1 379.2,275.1 384.3,249.7 383.7,249.6 378.6,275 378.6,275 379.2,275.1 379.2,275.1 	"/>
	<polygon class="st0" points="367.2,262.5 367.2,262.2 367,262 366.6,261.8 366.1,261.7 365.6,261.7 365,261.6 364.3,261.6 
		363.5,261.7 362.8,261.7 362,261.8 361.2,261.9 360.5,262 359.8,262.2 359.2,262.3 358.5,262.4 358,262.5 357.7,262.6 357.3,262.7 
		356.8,262.9 356.3,263 355.7,263.3 355.1,263.6 354.4,264 353.8,264.4 353.2,264.8 352.6,265.4 352,265.9 351.5,266.5 351.1,267.2 
		350.7,267.9 350.4,268.7 350.3,269.5 350.2,271.1 350.5,272.4 350.9,273.4 351.4,274.1 352.2,274.6 353,274.9 353.8,275 
		354.6,275.1 356.1,275 357.4,274.9 358.7,274.7 359.8,274.3 360.8,273.9 361.8,273.5 362.6,273 363.4,272.4 364.1,271.9 
		364.6,271.3 365.2,270.7 365.6,270.1 365.9,269.5 366.2,268.9 366.4,268.3 366.5,267.8 366.7,266.5 367,265.1 367.2,263.7 
		367.2,262.5 367.2,262.5 	"/>
	<polygon class="st2" points="466.5,279.2 466.6,278.1 467,276.8 467.7,275.6 468.5,274.6 469.5,273.8 470.6,273.2 471.9,272.8 
		473.2,272.7 474.6,272.8 475.8,273.2 477,273.8 478,274.6 478.8,275.6 479.5,276.8 479.9,278.1 480,279.2 478.5,279.2 478.5,278.3 
		478.2,277.3 477.7,276.3 477.1,275.5 476.3,274.8 475.4,274.3 474.4,274 473.2,273.9 472.1,274 471.1,274.3 470.2,274.8 
		469.4,275.5 468.8,276.3 468.3,277.3 468,278.3 467.9,279.2 466.5,279.2 466.5,279.2 	"/>
	<polygon class="st2" points="470.8,279.2 470.8,276.3 473.5,276.3 474.1,276.3 474.6,276.4 475,276.6 475.3,276.8 475.6,277.1 
		475.8,277.4 475.8,277.7 475.9,278 475.8,278.5 475.8,278.8 475.6,279.1 475.5,279.2 473.5,279.2 473.7,279.1 474,279.1 474.3,279 
		474.5,278.9 474.7,278.8 474.8,278.6 474.9,278.4 474.9,278 474.9,277.8 474.8,277.6 474.6,277.5 474.5,277.4 474.3,277.4 
		474,277.3 473.8,277.3 473.5,277.3 472,277.3 472,279.2 470.8,279.2 470.8,279.2 	"/>
	<polygon class="st2" points="466.5,279.2 466.5,279.5 466.6,280.9 467,282.2 467.7,283.3 468.5,284.3 469.5,285.1 470.6,285.7 
		471.9,286.1 473.2,286.3 474.6,286.1 475.8,285.7 477,285.1 478,284.3 478.8,283.3 479.5,282.2 479.9,280.9 480,279.5 480,279.2 
		478.5,279.2 478.6,279.5 478.5,280.6 478.2,281.7 477.7,282.6 477.1,283.4 476.3,284.1 475.4,284.6 474.4,285 473.2,285.1 
		472.1,285 471.1,284.6 470.2,284.1 469.4,283.4 468.8,282.6 468.3,281.7 468,280.6 467.9,279.5 467.9,279.2 466.5,279.2 
		466.5,279.2 	"/>
	<polygon class="st2" points="470.8,279.2 470.8,282.1 472,282.1 472,279.7 473.2,279.7 474.7,282.1 475.7,282.1 474.2,279.7 
		474.5,279.7 474.9,279.6 475.2,279.5 475.4,279.3 475.5,279.2 473.5,279.2 473.2,279.2 472,279.2 472,279.2 470.8,279.2 
		470.8,279.2 	"/>
	<path class="st3" d="M466.5,279.5L466.5,279.5l0.1-1.4l0.4-1.3l0.7-1.2l0.8-1l1-0.8l1.2-0.6l1.3-0.4l1.3-0.1l0,0l1.3,0.1l1.3,0.4
		l1.2,0.6l1,0.8l0.8,1l0.7,1.2l0.4,1.3l0.1,1.4l0,0l-0.1,1.4l-0.4,1.3l-0.7,1.2l-0.8,1l-1,0.8l-1.2,0.6l-1.3,0.4l-1.3,0.1l0,0
		l-1.3-0.1l-1.3-0.4l-1.2-0.6l-1-0.8l-0.8-1l-0.7-1.2l-0.4-1.3L466.5,279.5 M472,282.1h-1.2v-5.8h2.6l0,0l0.6,0l0.5,0.1l0.4,0.1
		l0.3,0.2l0.2,0.3l0.2,0.3l0.1,0.3l0,0.3l0,0l0,0.4l-0.1,0.3l-0.1,0.3l-0.2,0.2l-0.2,0.2l-0.3,0.1l-0.3,0.1h-0.3l1.4,2.4h-1
		l-1.4-2.4H472V282.1 M473.2,279.2L473.2,279.2l0.4-0.1l0.3,0l0.3-0.1l0.2-0.1l0.2-0.1l0.1-0.1l0.1-0.2V278l0,0l0-0.2l-0.1-0.2
		l-0.1-0.1l-0.1-0.1l-0.2,0l-0.2,0h-0.2h-0.3H472v1.9H473.2 M473.2,285.1L473.2,285.1l1.1-0.1l1.1-0.3l0.9-0.5l0.8-0.7l0.6-0.8
		l0.5-0.9l0.3-1.1l0.1-1.2l0,0l-0.1-1.2l-0.3-1.1l-0.5-1l-0.6-0.8l-0.8-0.7l-0.9-0.5l-1.1-0.3l-1.1-0.1l0,0l-1.1,0.1l-1.1,0.3
		l-0.9,0.5l-0.8,0.7l-0.6,0.8l-0.5,1l-0.3,1.1l-0.1,1.2l0,0l0.1,1.2l0.3,1.1l0.5,0.9l0.6,0.8l0.8,0.7l0.9,0.5l1.1,0.3L473.2,285.1"
		/>
	<polygon class="st2" points="382.5,285.8 396.1,285.8 396.1,285.8 401,258.4 401.2,257.3 401.5,256.3 401.7,255.2 402.1,254.1 
		402.6,253.1 403.2,252.1 403.8,251.1 404.6,250.2 405.5,249.4 406.4,248.6 407.5,247.9 408.8,247.3 410.2,246.8 411.7,246.4 
		413.4,246.1 415.3,246 416,246 416.3,246 416.5,246 416.5,246 418.7,233.7 417.3,233.8 416,233.9 414.8,234.1 413.6,234.5 
		412.6,234.9 411.6,235.3 410.6,235.9 409.7,236.5 408.8,237.1 408,237.8 407.2,238.6 406.5,239.3 405.7,240.2 405,241.1 
		404.3,241.9 403.6,242.9 405.1,234.2 391.5,234.2 382.5,285.8 382.5,285.8 382.5,285.8 	"/>
	<polyline class="st3" points="382.5,285.8 396.1,285.8 396.1,285.8 401,258.4 401,258.4 401.2,257.3 401.5,256.3 401.7,255.2 
		402.1,254.1 402.6,253.1 403.2,252.1 403.8,251.1 404.6,250.2 405.5,249.4 406.4,248.6 407.5,247.9 408.8,247.3 410.2,246.8 
		411.7,246.4 413.4,246.1 415.3,246 415.3,246 416,246 416.3,246 416.5,246 416.5,246 418.7,233.7 418.7,233.7 417.3,233.8 
		416,233.9 414.8,234.1 413.6,234.5 412.6,234.9 411.6,235.3 410.6,235.9 409.7,236.5 408.8,237.1 408,237.8 407.2,238.6 
		406.5,239.3 405.7,240.2 405,241.1 404.3,241.9 403.6,242.9 405.1,234.2 391.5,234.2 382.5,285.8 382.5,285.8 	"/>
	<polygon class="st2" points="254.9,285.8 268.5,285.8 268.8,285.8 273.4,258.4 273.6,257.3 273.8,256.3 274.1,255.3 274.4,254.3 
		274.8,253.4 275.3,252.5 275.9,251.6 276.5,250.8 277.3,250 278.2,249.3 279.2,248.7 280.4,248.2 281.7,247.8 283.2,247.4 
		284.9,247.2 286.7,247 286.9,247 287.1,247.1 287.3,247.1 287.6,247.1 287.8,247.2 288,247.2 288.1,247.2 288.2,247.2 288.2,247.1 
		288.4,246.5 288.6,245.6 288.8,244.5 289.1,243.3 289.5,241.9 289.9,240.6 290.4,239.2 290.7,238.3 291.2,237.4 291.7,236.5 
		292.2,235.7 292.6,235 293,234.4 293.2,234 293.3,233.9 293.2,233.9 293.1,233.9 292.8,233.8 292.5,233.8 292.1,233.8 291.7,233.7 
		291.4,233.7 291.1,233.7 289.6,233.8 288.2,233.9 287,234.1 285.8,234.4 284.7,234.8 283.7,235.3 282.8,235.8 281.9,236.4 
		281.1,237 280.3,237.7 279.6,238.4 278.9,239.2 278.2,240.1 277.5,241 276.8,241.9 276,242.9 277.8,234.2 264,234.2 254.9,285.8 
		254.9,285.8 254.9,285.8 	"/>
	<polyline class="st3" points="254.9,285.8 268.5,285.8 268.8,285.8 273.4,258.4 273.4,258.4 273.6,257.3 273.8,256.3 274.1,255.3 
		274.4,254.3 274.8,253.4 275.3,252.5 275.9,251.6 276.5,250.8 277.3,250 278.2,249.3 279.2,248.7 280.4,248.2 281.7,247.8 
		283.2,247.4 284.9,247.2 286.7,247 286.7,247 286.9,247 287.1,247.1 287.3,247.1 287.6,247.1 287.8,247.2 288,247.2 288.1,247.2 
		288.2,247.2 288.2,247.2 288.2,247.1 288.4,246.5 288.6,245.6 288.8,244.5 289.1,243.3 289.5,241.9 289.9,240.6 290.4,239.2 
		290.4,239.2 290.7,238.3 291.2,237.4 291.7,236.5 292.2,235.7 292.6,235 293,234.4 293.2,234 293.3,233.9 293.3,233.9 293.2,233.9 
		293.1,233.9 292.8,233.8 292.5,233.8 292.1,233.8 291.7,233.7 291.4,233.7 291.1,233.7 291.1,233.7 289.6,233.8 288.2,233.9 
		287,234.1 285.8,234.4 284.7,234.8 283.7,235.3 282.8,235.8 281.9,236.4 281.1,237 280.3,237.7 279.6,238.4 278.9,239.2 
		278.2,240.1 277.5,241 276.8,241.9 276,242.9 277.8,234.2 264,234.2 254.9,285.8 254.9,285.8 	"/>
	<polygon class="st0" points="466.6,336.5 466.6,336.3 467,335 467.7,333.9 468.5,333 469.5,332.2 470.6,331.6 471.9,331.3 
		473.2,331.1 474.6,331.3 475.8,331.6 477,332.2 478,333 478.8,333.9 479.5,335 479.9,336.3 479.9,336.5 478.5,336.5 478.2,335.5 
		477.7,334.5 477.1,333.7 476.3,333.1 475.4,332.5 474.4,332.2 473.2,332.1 472.1,332.2 471.1,332.5 470.2,333.1 469.4,333.7 
		468.8,334.5 468.3,335.5 468,336.5 466.6,336.5 466.6,336.5 	"/>
	<polygon class="st0" points="470.8,336.5 470.8,334.8 473.5,334.8 474.1,334.8 474.6,334.9 475,335 475.3,335.2 475.6,335.4 
		475.8,335.7 475.8,336 475.9,336.5 474.9,336.5 474.9,336.2 474.9,336 474.8,335.8 474.6,335.7 474.5,335.6 474.3,335.6 474,335.5 
		473.8,335.5 473.5,335.5 472,335.5 472,336.5 470.8,336.5 470.8,336.5 	"/>
	<polygon class="st0" points="466.5,337.5 466.6,336.5 468,336.5 468,336.5 467.9,337.5 466.5,337.5 466.5,337.5 	"/>
	<polygon class="st0" points="470.8,337.5 470.8,336.5 472,336.5 472,337.4 473.2,337.4 473.7,337.3 474,337.3 474.3,337.2 
		474.5,337.1 474.7,337 474.8,336.8 474.9,336.6 474.9,336.5 475.9,336.5 475.9,336.5 475.8,336.8 475.8,337.1 475.6,337.3 
		475.4,337.5 470.8,337.5 470.8,337.5 	"/>
	<polygon class="st0" points="478.6,337.5 478.5,336.5 478.5,336.5 479.9,336.5 480,337.5 478.6,337.5 478.6,337.5 	"/>
	<polygon class="st0" points="466.5,337.5 466.5,337.7 466.6,339.1 467,340.4 467.7,341.5 468.5,342.5 469.5,343.4 470.6,343.9 
		471.9,344.3 473.2,344.5 474.6,344.3 475.8,343.9 477,343.4 478,342.5 478.8,341.5 479.5,340.4 479.9,339.1 480,337.7 480,337.5 
		478.6,337.5 478.6,337.7 478.5,338.8 478.2,339.9 477.7,340.8 477.1,341.6 476.3,342.3 475.4,342.8 474.4,343.2 473.2,343.3 
		472.1,343.2 471.1,342.8 470.2,342.3 469.4,341.6 468.8,340.8 468.3,339.9 468,338.8 467.9,337.7 467.9,337.5 466.5,337.5 
		466.5,337.5 	"/>
	<polygon class="st0" points="470.8,337.5 470.8,340.3 472,340.3 472,337.9 473.2,337.9 474.7,340.3 475.7,340.3 474.2,337.9 
		474.5,337.9 474.9,337.8 475.2,337.7 475.4,337.5 475.4,337.5 470.8,337.5 470.8,337.5 	"/>
</g>
</svg>
