<?xml version="1.0" encoding="utf-8"?>
<!-- Generator: Adobe Illustrator 23.0.1, SVG Export Plug-In . SVG Version: 6.00 Build 0)  -->
<svg version="1.1" id="Layer_1" xmlns="http://www.w3.org/2000/svg" xmlns:xlink="http://www.w3.org/1999/xlink" x="0px" y="0px"
	 viewBox="0 0 448 447.2" style="enable-background:new 0 0 448 447.2;" xml:space="preserve">
<style type="text/css">
	.st0{fill:#FFFFFF;}
</style>
<path class="st0" d="M224.1,148.3c-41.5,0-75.2,33.7-75.2,75.2s33.7,75.2,75.2,75.2s75.2-33.7,75.2-75.2S265.6,148.3,224.1,148.3z
	 M224.1,298.2L224.1,298.2L224.1,298.2c-41.1,0-74.7-33.5-74.7-74.7s33.5-74.7,74.7-74.7s74.7,33.5,74.7,74.7
	S265.2,298.2,224.1,298.2z"/>
<path class="st0" d="M446.1,131.2L446.1,131.2c-2-41.9-13.1-70.7-36.1-93.6c-22.8-22.8-51.7-34-93.6-36.1C297.9,0.5,260.9,0,224,0
	s-73.8,0.5-92.4,1.6C89.8,3.6,61,14.7,38,37.5C15.2,60.3,4.1,89.1,1.9,131.1c-2.1,37.1-2.1,147.7,0,184.8
	c2,41.9,13.1,70.7,36.1,93.6c22.9,22.8,51.8,34,93.6,36.1c37.1,2.1,147.7,2.1,184.8,0c41.9-2,70.7-13.1,93.6-36.1
	c22.8-22.8,34-51.7,36.1-93.6C448.2,278.8,448.2,168.3,446.1,131.2z M305.7,305.2C283.9,327,254.9,339,224.1,339
	c-30.9,0-59.9-12-81.7-33.7c-21.8-21.8-33.7-50.8-33.7-81.7s12-59.9,33.7-81.7c21.8-21.8,50.8-33.7,81.7-33.7s59.9,12,81.7,33.7
	c21.8,21.8,33.7,50.8,33.7,81.7S327.5,283.5,305.7,305.2z M353.6,122.6c-15.1,0-27.3-12.2-27.3-27.3S338.5,68,353.6,68
	s27.3,12.2,27.3,27.3S368.6,122.6,353.6,122.6z"/>
<ellipse class="st0" cx="224.1" cy="223.5" rx="74.2" ry="74.2"/>
<path class="st0" d="M224.1,148.8c-41.2,0-74.7,33.5-74.7,74.7s33.6,74.7,74.7,74.7s74.7-33.5,74.7-74.7S265.3,148.8,224.1,148.8z
	 M224.1,297.7c-40.9,0-74.2-33.3-74.2-74.2s33.3-74.2,74.2-74.2s74.2,33.3,74.2,74.2S265,297.7,224.1,297.7z"/>
</svg>
