<?xml version="1.0" encoding="utf-8"?>
<!-- Generator: Adobe Illustrator 23.0.1, SVG Export Plug-In . SVG Version: 6.00 Build 0)  -->
<svg version="1.1" id="Layer_1" focusable="false" xmlns="http://www.w3.org/2000/svg" xmlns:xlink="http://www.w3.org/1999/xlink"
	 x="0px" y="0px" viewBox="0 0 512 512" style="enable-background:new 0 0 512 512;" xml:space="preserve">
<style type="text/css">
	.st0{fill:#FFFFFF;}
</style>
<path class="st0" d="M279.1,512c-68.4,0-132.7-26.6-181.1-75c-48.3-48.3-74.9-112.6-74.9-181c0-68.4,26.6-132.7,75-181.1
	C146.4,26.6,210.7,0,279.1,0c15.5,0,31.2,1.4,46.7,4.3c24.4,4.5,36,23.9,38.6,39.2c2.7,16-2.1,37.5-23.5,49.7
	c-41.6,23.6-67.5,68-67.5,115.8c0,35.8,14,69.5,39.5,94.7c25.1,24.8,58.3,38.5,93.5,38.5c8.3,0,16.8-0.8,25.3-2.4
	c2.9-0.6,6.1-0.9,9.5-0.9c18.4,0,34.9,10.6,42.9,27.7c8.1,17,5.8,35.9-6.2,50.6C429.1,477.4,356.6,512,279.1,512z M279.1,48
	c-114.7,0-208,93.3-208,208s93.3,208,208,208c62.9,0,121.7-28,161.4-76.8c-0.2,0-0.4,0-0.6,0c-11.4,2.1-22.7,3.1-33.6,3.1
	c-99.7,0-180.9-81.3-180.9-181.2c0-64.2,12.4-103.3,82.4-151.2c1.6-2,3.1-4.5,3.8-6.1c-0.1-0.1-0.2-0.1-0.3-0.2
	C300.4,49.5,291.5,48,279.1,48z"/>
</svg>
