<?xml version="1.0" encoding="utf-8"?>
<!-- Generator: Adobe Illustrator 23.0.1, SVG Export Plug-In . SVG Version: 6.00 Build 0)  -->
<svg version="1.1" id="Layer_1" focusable="false" xmlns="http://www.w3.org/2000/svg" xmlns:xlink="http://www.w3.org/1999/xlink"
	 x="0px" y="0px" viewBox="0 0 512 512" style="enable-background:new 0 0 512 512;" xml:space="preserve">
<path d="M446.9,477.4c-0.9,0-2.1-0.2-3.3-1.4L329.2,361.5c-0.8-0.8-1.3-2-1.3-3.3v-37.1H365c1.3,0,2.4,0.5,3.3,1.3l114.4,114.4
	c1.8,1.8,1.8,4.8-0.1,6.6L450,476.1C449,477.2,447.8,477.4,446.9,477.4z"/>
<path d="M215.3,369.4c-44.2,0-85.7-17.2-116.9-48.4C67.2,289.7,50,248.2,50,204s17.2-85.7,48.4-116.9s72.8-48.4,116.9-48.4
	S301,55.9,332.3,87.1c31.2,31.2,48.4,72.8,48.4,116.9c0,37.3-12.1,72.5-35,101.8l-12.6,16.1l-16.1,12.6
	C287.8,357.3,252.6,369.4,215.3,369.4z M215.3,73.8c-71.8,0-130.2,58.4-130.2,130.2s58.4,130.2,130.2,130.2S345.5,275.8,345.5,204
	S287.1,73.8,215.3,73.8z"/>
</svg>
