<?xml version="1.0" encoding="utf-8"?>
<!-- Generator: Adobe Illustrator 23.0.1, SVG Export Plug-In . SVG Version: 6.00 Build 0)  -->
<svg version="1.1" id="Layer_1" xmlns="http://www.w3.org/2000/svg" xmlns:xlink="http://www.w3.org/1999/xlink" x="0px" y="0px"
	 viewBox="0 0 844 502" style="enable-background:new 0 0 844 502;" xml:space="preserve">
<style type="text/css">
	.st0{fill-rule:evenodd;clip-rule:evenodd;fill:#FCB331;}
	.st1{fill-rule:evenodd;clip-rule:evenodd;fill:#ED1B2E;}
	.st2{fill-rule:evenodd;clip-rule:evenodd;fill:#FFFFFF;}
	.st3{fill:none;stroke:#FFFFFF;stroke-width:0.216;stroke-miterlimit:2.6131;}
</style>
<g>
	<polygon class="st0" points="552.5,446.9 562.6,446.6 572.5,445.9 582.2,444.6 591.9,442.9 601.3,440.8 610.6,438.1 619.7,435 
		628.6,431.5 637.3,427.6 645.7,423.3 653.9,418.6 661.8,413.5 669.5,408 676.8,402.3 683.9,396.1 690.7,389.6 697.2,382.8 
		703.4,375.7 709.2,368.3 714.6,360.7 719.7,352.7 724.4,344.6 728.7,336.2 732.7,327.5 736.2,318.6 739.2,309.5 741.9,300.2 
		744,290.8 745.8,281.1 747,271.4 747.7,261.4 748,251.4 747.7,241.4 747,231.5 745.8,221.7 744,212.2 741.9,202.8 739.2,193.6 
		736.2,184.5 732.7,175.7 728.7,167 724.4,158.6 719.7,150.5 714.6,142.6 709.2,134.9 703.4,127.6 697.2,120.5 690.7,113.7 
		683.9,107.3 676.8,101.1 669.5,95.4 661.8,89.9 653.9,84.8 645.7,80.1 637.3,75.9 628.6,71.9 619.7,68.4 610.6,65.3 601.3,62.7 
		591.9,60.5 582.2,58.8 572.5,57.6 562.6,56.8 552.5,56.6 542.5,56.8 532.5,57.6 522.8,58.8 513.2,60.5 503.8,62.7 494.5,65.3 
		485.5,68.4 476.6,71.9 468,75.9 459.6,80.1 451.4,84.8 443.5,89.9 435.9,95.4 428.5,101.1 421.5,107.3 414.7,113.7 408.3,120.5 
		402.1,127.6 396.3,134.9 390.9,142.6 385.9,150.5 381.2,158.6 376.9,167 373,175.7 369.5,184.5 366.5,193.6 363.8,202.8 
		361.6,212.2 359.9,221.7 358.7,231.5 358,241.4 357.7,251.4 358,261.4 358.7,271.4 359.9,281.1 361.6,290.8 363.8,300.2 
		366.5,309.5 369.5,318.6 373,327.5 376.9,336.2 381.2,344.6 385.9,352.7 390.9,360.7 396.3,368.3 402.1,375.7 408.3,382.8 
		414.7,389.6 421.5,396.1 428.5,402.3 435.9,408 443.5,413.5 451.4,418.6 459.6,423.3 468,427.6 476.6,431.5 485.5,435 494.5,438.1 
		503.8,440.8 513.2,442.9 522.8,444.6 532.5,445.9 542.5,446.6 552.5,446.9 552.5,446.9 	"/>
	<polygon class="st1" points="291.4,446.9 301.4,446.6 311.4,445.9 321.1,444.6 330.7,442.9 340.1,440.8 349.4,438.1 358.4,435 
		367.3,431.5 375.9,427.6 384.3,423.3 392.5,418.6 400.4,413.5 408,408 415.4,402.3 422.4,396.1 429.2,389.6 435.6,382.8 
		441.8,375.7 447.6,368.3 452.9,360.7 458,352.7 462.7,344.6 467,336.2 470.9,327.5 474.4,318.6 477.4,309.5 480.1,300.2 
		482.2,290.8 484,281.1 485.2,271.4 485.9,261.4 486.2,251.4 485.9,241.4 485.2,231.5 484,221.7 482.2,212.2 480.1,202.8 
		477.4,193.6 474.4,184.5 470.9,175.7 467,167 462.7,158.6 458,150.5 452.9,142.6 447.6,134.9 441.8,127.6 435.6,120.5 429.2,113.7 
		422.4,107.3 415.4,101.1 408,95.4 400.4,89.9 392.5,84.8 384.3,80.1 375.9,75.9 367.3,71.9 358.4,68.4 349.4,65.3 340.1,62.7 
		330.7,60.5 321.1,58.8 311.4,57.6 301.4,56.8 291.4,56.6 281.3,56.8 271.4,57.6 261.6,58.8 252,60.5 242.6,62.7 233.3,65.3 
		224.2,68.4 215.3,71.9 206.6,75.9 198.2,80.1 190,84.8 182.1,89.9 174.4,95.4 167.1,101.1 159.9,107.3 153.2,113.7 146.6,120.5 
		140.5,127.6 134.7,134.9 129.3,142.6 124.2,150.5 119.5,158.6 115.2,167 111.2,175.7 107.7,184.5 104.6,193.6 102,202.8 
		99.8,212.2 98.1,221.7 96.9,231.5 96.2,241.4 95.9,251.4 96.2,261.4 96.9,271.4 98.1,281.1 99.8,290.8 102,300.2 104.6,309.5 
		107.7,318.6 111.2,327.5 115.2,336.2 119.5,344.6 124.2,352.7 129.3,360.7 134.7,368.3 140.5,375.7 146.6,382.8 153.2,389.6 
		159.9,396.1 167.1,402.3 174.4,408 182.1,413.5 190,418.6 198.2,423.3 206.6,427.6 215.3,431.5 224.2,435 233.3,438.1 242.6,440.8 
		252,442.9 261.6,444.6 271.4,445.9 281.3,446.6 291.4,446.9 291.4,446.9 	"/>
	<polygon class="st0" points="399.1,131.4 502.8,131.4 502.8,120.8 408.1,120.8 399.1,131.4 399.1,131.4 	"/>
	<polygon class="st0" points="383.6,155 502.8,155 502.8,144.4 389.8,144.4 383.6,155 383.6,155 	"/>
	<polygon class="st0" points="372,178.5 502.8,178.5 502.8,167.9 376.6,167.9 372,178.5 372,178.5 	"/>
	<polygon class="st0" points="364,202.1 502.8,202.1 502.8,191.5 367.3,191.5 364,202.1 364,202.1 	"/>
	<polygon class="st0" points="368.6,315.9 503.1,315.9 503.1,305.3 365.3,305.3 368.6,315.9 368.6,315.9 	"/>
	<polygon class="st0" points="378.6,339.5 503.1,339.5 503.1,328.9 373.6,328.9 378.6,339.5 378.6,339.5 	"/>
	<polygon class="st0" points="392.5,363 503.1,363 503.1,352.4 385.9,352.4 392.5,363 392.5,363 	"/>
	<polygon class="st0" points="411.7,386.6 503.1,386.6 503.1,375.9 402.5,375.9 411.7,386.6 411.7,386.6 	"/>
	<polygon class="st0" points="359.3,225.6 502.8,225.6 502.8,215 361.4,215 359.3,225.6 359.3,225.6 	"/>
	<polygon class="st0" points="446.8,292.4 501.5,292.4 501.5,281.8 448.7,281.8 446.8,292.4 446.8,292.4 	"/>
	<polygon class="st0" points="451.1,268.9 501.5,268.9 501.5,258.3 453.1,258.3 451.1,268.9 451.1,268.9 	"/>
	<polygon class="st0" points="355.7,258.3 369.9,258.3 369.9,268.9 356.4,268.9 355.7,258.3 355.7,258.3 	"/>
	<polygon class="st2" points="329.2,245.4 328.3,245.4 327.3,245.2 326.5,245.1 325.6,245 324.8,244.9 324,244.7 323.1,244.6 
		322.2,244.5 321.3,244.3 320.2,244.3 319.1,244.2 317.8,244.1 316.4,244.1 314.9,244.2 313.2,244.3 311.3,244.5 310,244.7 
		308.7,244.9 307.6,245.2 306.6,245.6 305.7,246.1 304.8,246.6 304.2,247.3 303.6,247.9 303.2,248.6 302.9,249.3 302.7,250.1 
		302.7,250.9 302.9,251.8 303.2,252.6 303.7,253.5 304.4,254.3 305.7,255.6 307.3,256.6 309.1,257.4 311.1,258.1 313.2,258.8 
		315.4,259.5 317.5,260.3 319.6,261.2 321.6,262.3 323.5,263.7 325.1,265.3 326.5,267.4 327.5,269.9 328.2,272.8 328.5,276.4 
		328.2,280.5 327.7,283.6 327,286.3 325.9,288.8 324.6,291 323.1,292.9 321.4,294.6 319.5,296 317.5,297.3 315.4,298.2 313.2,299.1 
		311,299.8 308.7,300.3 306.4,300.7 304.2,300.9 302.1,301 300,301.1 297.2,301.1 294.6,301 292.3,301 290.1,300.9 288.1,300.9 
		286.3,300.7 284.8,300.6 283.2,300.4 281.9,300.3 280.6,300 279.4,299.8 278.2,299.5 277.1,299.2 276.1,298.8 275,298.4 273.9,298 
		276.9,283.5 277.4,283.6 278.2,283.8 279.1,284.1 280.2,284.3 281.4,284.6 282.7,284.9 284.2,285.2 285.7,285.5 287.4,285.7 
		289.1,286 290.9,286.2 292.7,286.4 294.6,286.5 296.5,286.5 298.4,286.5 300.4,286.5 302.3,286.1 303.8,285.5 305,284.8 
		305.9,283.9 306.5,283 307.1,281.9 307.4,280.9 307.7,279.9 307.8,278 307.2,276.3 306.1,275 304.4,273.9 302.5,272.9 300.2,271.9 
		297.6,271 295,269.9 292.4,268.7 289.9,267.4 287.6,265.7 285.5,263.6 283.8,261.1 282.6,258.1 282.1,254.6 282.1,250.4 
		282.5,247.8 282.9,245.4 283.6,243.1 284.4,241 285.4,239.1 286.6,237.3 288,235.7 289.6,234.3 291.5,233 293.6,231.9 296,231 
		298.6,230.2 301.6,229.6 304.8,229.2 308.4,228.9 312.3,228.9 314.7,228.9 316.9,228.9 319,229 320.8,229.1 322.5,229.2 324,229.3 
		325.3,229.4 326.5,229.6 327.6,229.7 328.5,229.9 329.4,230 330.2,230.2 330.8,230.3 331.4,230.4 332,230.5 332.5,230.6 
		329.2,245.4 329.2,245.4 	"/>
	<polyline class="st3" points="329.2,245.4 329.2,245.4 328.3,245.4 327.3,245.2 326.5,245.1 325.6,245 324.8,244.9 324,244.7 
		323.1,244.6 322.2,244.5 321.3,244.3 320.2,244.3 319.1,244.2 317.8,244.1 316.4,244.1 314.9,244.2 313.2,244.3 311.3,244.5 
		311.3,244.5 310,244.7 308.7,244.9 307.6,245.2 306.6,245.6 305.7,246.1 304.8,246.6 304.2,247.3 303.6,247.9 303.2,248.6 
		302.9,249.3 302.7,250.1 302.7,250.9 302.9,251.8 303.2,252.6 303.7,253.5 304.4,254.3 304.4,254.3 305.7,255.6 307.3,256.6 
		309.1,257.4 311.1,258.1 313.2,258.8 315.4,259.5 317.5,260.3 319.6,261.2 321.6,262.3 323.5,263.7 325.1,265.3 326.5,267.4 
		327.5,269.9 328.2,272.8 328.5,276.4 328.2,280.5 328.2,280.5 327.7,283.6 327,286.3 325.9,288.8 324.6,291 323.1,292.9 
		321.4,294.6 319.5,296 317.5,297.3 315.4,298.2 313.2,299.1 311,299.8 308.7,300.3 306.4,300.7 304.2,300.9 302.1,301 300,301.1 
		300,301.1 297.2,301.1 294.6,301 292.3,301 290.1,300.9 288.1,300.9 286.3,300.7 284.8,300.6 283.2,300.4 281.9,300.3 280.6,300 
		279.4,299.8 278.2,299.5 277.1,299.2 276.1,298.8 275,298.4 273.9,298 276.9,283.5 276.9,283.5 277.4,283.6 278.2,283.8 
		279.1,284.1 280.2,284.3 281.4,284.6 282.7,284.9 284.2,285.2 285.7,285.5 287.4,285.7 289.1,286 290.9,286.2 292.7,286.4 
		294.6,286.5 296.5,286.5 298.4,286.5 300.4,286.5 300.4,286.5 302.3,286.1 303.8,285.5 305,284.8 305.9,283.9 306.5,283 
		307.1,281.9 307.4,280.9 307.7,279.9 307.7,279.9 307.8,278 307.2,276.3 306.1,275 304.4,273.9 302.5,272.9 300.2,271.9 297.6,271 
		295,269.9 292.4,268.7 289.9,267.4 287.6,265.7 285.5,263.6 283.8,261.1 282.6,258.1 282.1,254.6 282.1,250.4 282.1,250.4 
		282.5,247.8 282.9,245.4 283.6,243.1 284.4,241 285.4,239.1 286.6,237.3 288,235.7 289.6,234.3 291.5,233 293.6,231.9 296,231 
		298.6,230.2 301.6,229.6 304.8,229.2 308.4,228.9 312.3,228.9 312.3,228.9 314.7,228.9 316.9,228.9 319,229 320.8,229.1 
		322.5,229.2 324,229.3 325.3,229.4 326.5,229.6 327.6,229.7 328.5,229.9 329.4,230 330.2,230.2 330.8,230.3 331.4,230.4 332,230.5 
		332.5,230.6 329.2,245.4 	"/>
	<polygon class="st2" points="344.8,214.3 363,214.3 360.3,230.2 371.3,230.2 369,245.1 357.4,244.8 351,281.5 351,282.8 351.3,284 
		352,284.8 352.8,285.5 354,286 355.3,286.4 356.8,286.7 358.4,286.8 359.8,286.7 361.1,286.6 362.3,286.4 363.4,286.1 364.2,285.9 
		364.8,285.7 365.2,285.5 365.3,285.5 363,297.7 362.6,298 362.1,298.3 361.6,298.6 361.2,298.8 360.7,299 360.2,299.2 359.6,299.4 
		359,299.6 358.4,299.8 357.7,300 356.9,300.1 356.1,300.2 355.3,300.3 354.3,300.5 353.2,300.6 352.1,300.7 347.1,300.7 
		344.5,300.5 342.2,300.3 340.1,299.9 338.3,299.4 336.8,298.8 335.5,298.2 334.4,297.4 333.5,296.5 332.9,295.6 332.4,294.5 
		332.1,293.4 331.9,292.1 331.8,290.7 331.8,289.3 332,287.8 332.2,286.1 344.8,214.3 344.8,214.3 	"/>
	<polyline class="st3" points="344.8,214.3 363,214.3 360.3,230.2 371.3,230.2 369,245.1 357.4,244.8 351,281.5 351,281.5 
		351,282.8 351.3,284 352,284.8 352.8,285.5 354,286 355.3,286.4 356.8,286.7 358.4,286.8 358.4,286.8 359.8,286.7 361.1,286.6 
		362.3,286.4 363.4,286.1 364.2,285.9 364.8,285.7 365.2,285.5 365.3,285.5 363,297.7 363,297.7 362.6,298 362.1,298.3 361.6,298.6 
		361.2,298.8 360.7,299 360.2,299.2 359.6,299.4 359,299.6 358.4,299.8 357.7,300 356.9,300.1 356.1,300.2 355.3,300.3 354.3,300.5 
		353.2,300.6 352.1,300.7 347.1,300.7 347.1,300.7 344.5,300.5 342.2,300.3 340.1,299.9 338.3,299.4 336.8,298.8 335.5,298.2 
		334.4,297.4 333.5,296.5 332.9,295.6 332.4,294.5 332.1,293.4 331.9,292.1 331.8,290.7 331.8,289.3 332,287.8 332.2,286.1 
		344.8,214.3 	"/>
	<polygon class="st2" points="385.9,269.9 385.7,271.1 385.6,272.2 385.7,273.5 386,274.7 386.5,276 387,277.2 387.7,278.4 
		388.5,279.5 389.4,280.7 390.4,281.7 391.5,282.6 392.7,283.4 393.8,284.2 395.2,284.7 396.5,285.2 397.8,285.5 399.5,285.7 
		401.1,285.9 402.9,286.1 404.6,286.3 406.3,286.3 408.1,286.3 409.8,286.3 411.5,286.1 413.3,285.9 415.1,285.5 416.9,285.1 
		418.7,284.5 420.6,283.8 422.5,283 424.3,282 426.2,280.9 423.6,297.1 422.5,297.6 421.5,298.1 420.4,298.5 419.4,298.9 
		418.5,299.2 417.4,299.6 416.3,299.8 415.2,300 414,300.2 412.7,300.3 411.3,300.5 409.8,300.6 408.1,300.7 406.3,300.7 
		404.3,300.7 402.1,300.7 398.9,300.7 395.6,300.3 392.3,299.9 389,299.1 385.8,298.1 382.7,296.9 379.7,295.2 377,293.3 
		374.4,291.1 372.2,288.4 370.3,285.3 368.7,281.8 367.6,278 366.8,273.6 366.6,268.7 367,263.3 367.2,261.2 367.6,258.7 
		368.2,256.2 368.9,253.4 369.9,250.6 371.1,247.7 372.6,244.9 374.4,242.1 376.5,239.5 379.1,237 382,234.7 385.3,232.7 
		389.1,231.1 393.4,229.9 398.1,229.1 403.4,228.9 406,228.9 408.7,229.2 411.4,229.6 414.1,230.3 416.7,231.3 419.3,232.5 
		421.7,234.1 423.9,235.9 425.8,238.1 427.5,240.8 428.8,243.8 429.7,247.3 430.2,251.2 430.3,255.7 429.8,260.7 428.9,266.2 
		428.5,270.3 380.5,270.3 383.6,257.3 412.4,257.3 412.5,255.6 412.5,254.1 412.3,252.6 412.1,251.3 411.6,250.1 411.1,248.9 
		410.5,247.9 409.8,247 409,246.2 408.2,245.6 407.2,245 406.2,244.5 405.2,244.1 404.1,243.8 403,243.6 401.8,243.5 400.5,243.5 
		399.4,243.7 398.2,244 397.1,244.4 396,244.9 395,245.5 394,246.2 393.2,247 392.3,247.9 391.5,248.9 390.8,250 390.2,251.1 
		389.6,252.3 389.2,253.6 388.8,254.9 388.5,256.3 385.9,269.9 385.9,269.9 	"/>
	<polyline class="st3" points="385.9,269.9 385.9,269.9 385.7,271.1 385.6,272.2 385.7,273.5 386,274.7 386.5,276 387,277.2 
		387.7,278.4 388.5,279.5 389.4,280.7 390.4,281.7 391.5,282.6 392.7,283.4 393.8,284.2 395.2,284.7 396.5,285.2 397.8,285.5 
		397.8,285.5 399.5,285.7 401.1,285.9 402.9,286.1 404.6,286.3 406.3,286.3 408.1,286.3 409.8,286.3 411.5,286.1 413.3,285.9 
		415.1,285.5 416.9,285.1 418.7,284.5 420.6,283.8 422.5,283 424.3,282 426.2,280.9 423.6,297.1 423.6,297.1 422.5,297.6 
		421.5,298.1 420.4,298.5 419.4,298.9 418.5,299.2 417.4,299.6 416.3,299.8 415.2,300 414,300.2 412.7,300.3 411.3,300.5 
		409.8,300.6 408.1,300.7 406.3,300.7 404.3,300.7 402.1,300.7 402.1,300.7 398.9,300.7 395.6,300.3 392.3,299.9 389,299.1 
		385.8,298.1 382.7,296.9 379.7,295.2 377,293.3 374.4,291.1 372.2,288.4 370.3,285.3 368.7,281.8 367.6,278 366.8,273.6 
		366.6,268.7 367,263.3 367,263.3 367.2,261.2 367.6,258.7 368.2,256.2 368.9,253.4 369.9,250.6 371.1,247.7 372.6,244.9 
		374.4,242.1 376.5,239.5 379.1,237 382,234.7 385.3,232.7 389.1,231.1 393.4,229.9 398.1,229.1 403.4,228.9 403.4,228.9 406,228.9 
		408.7,229.2 411.4,229.6 414.1,230.3 416.7,231.3 419.3,232.5 421.7,234.1 423.9,235.9 425.8,238.1 427.5,240.8 428.8,243.8 
		429.7,247.3 430.2,251.2 430.3,255.7 429.8,260.7 428.9,266.2 428.5,270.3 380.5,270.3 383.6,257.3 412.4,257.3 412.4,257.3 
		412.5,255.6 412.5,254.1 412.3,252.6 412.1,251.3 411.6,250.1 411.1,248.9 410.5,247.9 409.8,247 409,246.2 408.2,245.6 407.2,245 
		406.2,244.5 405.2,244.1 404.1,243.8 403,243.6 401.8,243.5 401.8,243.5 400.5,243.5 399.4,243.7 398.2,244 397.1,244.4 396,244.9 
		395,245.5 394,246.2 393.2,247 392.3,247.9 391.5,248.9 390.8,250 390.2,251.1 389.6,252.3 389.2,253.6 388.8,254.9 388.5,256.3 
		385.9,269.9 	"/>
	<polygon class="st2" points="542.9,234.2 542,233.7 541.2,233.3 540.2,232.9 539.3,232.4 538.3,232 537.1,231.6 536,231.2 
		534.8,230.8 533.6,230.5 532.3,230.2 531,230 529.6,229.8 528.1,229.6 526.5,229.5 525,229.5 523.3,229.5 521.7,229.5 520,229.6 
		518.2,229.8 516.3,230.2 514.5,230.7 512.7,231.4 510.8,232.3 509,233.5 507.2,235 505.5,236.7 503.8,238.8 502.3,241.2 
		500.8,244.1 499.4,247.4 498.2,251.1 497.1,255.3 496.7,257.7 496.5,260 496.3,262.3 496.4,264.5 496.6,266.8 497.1,268.9 
		497.6,270.9 498.4,272.8 499.4,274.6 500.5,276.3 501.9,277.8 503.5,279.2 505.3,280.4 507.3,281.4 509.6,282.2 512.1,282.8 
		512.9,283 513.9,283.2 515.1,283.4 516.4,283.5 517.9,283.6 519.4,283.6 521,283.6 522.7,283.5 524.4,283.3 526.1,283 527.7,282.5 
		529.4,282 531,281.3 532.5,280.4 533.9,279.3 535.2,278.2 532.3,295.7 531.9,296.1 531.5,296.5 531,296.9 530.4,297.3 529.6,297.8 
		528.7,298.3 527.7,298.8 526.5,299.2 525,299.6 523.3,300 521.3,300.2 519,300.5 516.4,300.6 513.4,300.7 510.1,300.6 506.4,300.4 
		503.4,300.1 500.3,299.4 497.3,298.4 494.3,297.1 491.4,295.5 488.6,293.6 486,291.3 483.6,288.6 481.4,285.7 479.5,282.4 
		478,278.7 476.8,274.7 476,270.3 475.7,265.6 475.9,260.5 476.6,255 477.1,252.3 477.7,249.7 478.4,247.1 479,244.7 479.7,242.4 
		480.6,240 481.5,237.9 482.4,235.8 483.4,233.8 484.4,231.9 485.5,230 486.7,228.3 487.8,226.7 489.2,225.1 490.5,223.7 
		491.9,222.3 493.4,221 494.9,219.7 496.5,218.6 498.1,217.5 499.9,216.5 501.7,215.7 503.5,214.9 505.4,214.2 507.5,213.5 
		509.5,213 511.6,212.5 513.8,212.1 516.1,211.8 518.5,211.5 520.8,211.4 523.3,211.3 525.4,211.4 527.5,211.5 529.4,211.7 
		531.4,212 533.3,212.3 535,212.7 536.8,213 538.3,213.4 539.8,213.8 541.2,214.2 542.4,214.6 543.5,215 544.4,215.3 545.2,215.6 
		545.8,215.8 546.2,216 542.9,234.2 542.9,234.2 	"/>
	<polyline class="st3" points="542.9,234.2 542.9,234.2 542,233.7 541.2,233.3 540.2,232.9 539.3,232.4 538.3,232 537.1,231.6 
		536,231.2 534.8,230.8 533.6,230.5 532.3,230.2 531,230 529.6,229.8 528.1,229.6 526.5,229.5 525,229.5 523.3,229.5 523.3,229.5 
		521.7,229.5 520,229.6 518.2,229.8 516.3,230.2 514.5,230.7 512.7,231.4 510.8,232.3 509,233.5 507.2,235 505.5,236.7 503.8,238.8 
		502.3,241.2 500.8,244.1 499.4,247.4 498.2,251.1 497.1,255.3 497.1,255.3 496.7,257.7 496.5,260 496.3,262.3 496.4,264.5 
		496.6,266.8 497.1,268.9 497.6,270.9 498.4,272.8 499.4,274.6 500.5,276.3 501.9,277.8 503.5,279.2 505.3,280.4 507.3,281.4 
		509.6,282.2 512.1,282.8 512.1,282.8 512.9,283 513.9,283.2 515.1,283.4 516.4,283.5 517.9,283.6 519.4,283.6 521,283.6 
		522.7,283.5 524.4,283.3 526.1,283 527.7,282.5 529.4,282 531,281.3 532.5,280.4 533.9,279.3 535.2,278.2 532.3,295.7 532.3,295.7 
		531.9,296.1 531.5,296.5 531,296.9 530.4,297.3 529.6,297.8 528.7,298.3 527.7,298.8 526.5,299.2 525,299.6 523.3,300 521.3,300.2 
		519,300.5 516.4,300.6 513.4,300.7 510.1,300.6 506.4,300.4 506.4,300.4 503.4,300.1 500.3,299.4 497.3,298.4 494.3,297.1 
		491.4,295.5 488.6,293.6 486,291.3 483.6,288.6 481.4,285.7 479.5,282.4 478,278.7 476.8,274.7 476,270.3 475.7,265.6 475.9,260.5 
		476.6,255 476.6,255 477.1,252.3 477.7,249.7 478.4,247.1 479,244.7 479.7,242.4 480.6,240 481.5,237.9 482.4,235.8 483.4,233.8 
		484.4,231.9 485.5,230 486.7,228.3 487.8,226.7 489.2,225.1 490.5,223.7 491.9,222.3 493.4,221 494.9,219.7 496.5,218.6 
		498.1,217.5 499.9,216.5 501.7,215.7 503.5,214.9 505.4,214.2 507.5,213.5 509.5,213 511.6,212.5 513.8,212.1 516.1,211.8 
		518.5,211.5 520.8,211.4 523.3,211.3 523.3,211.3 525.4,211.4 527.5,211.5 529.4,211.7 531.4,212 533.3,212.3 535,212.7 536.8,213 
		538.3,213.4 539.8,213.8 541.2,214.2 542.4,214.6 543.5,215 544.4,215.3 545.2,215.6 545.8,215.8 546.2,216 542.9,234.2 	"/>
	<polygon class="st2" points="704.9,300.7 686.7,300.7 688,293.4 688,292.8 687,294.1 685.9,295.3 684.7,296.3 683.6,297.3 
		682.4,298.1 681.2,298.8 680,299.4 678.7,300 677.5,300.5 676.2,300.8 675,301.1 673.7,301.3 672.4,301.5 671.1,301.7 669.8,301.7 
		668.5,301.7 665.1,301.5 661.9,300.7 659,299.6 656.4,298.1 654,296.2 651.9,294 650,291.5 648.5,288.8 647.1,285.8 646.1,282.7 
		645.4,279.5 644.8,276.1 644.6,272.8 644.7,269.3 645,266 645.6,262.6 646.6,258.7 647.8,255.1 649.2,251.7 650.8,248.5 
		652.5,245.6 654.5,242.9 656.6,240.6 658.7,238.4 661,236.5 663.5,234.8 666,233.4 668.5,232.3 671.1,231.4 673.7,230.8 
		676.4,230.4 679.1,230.2 681,230.3 682.8,230.5 684.5,230.8 686.1,231.3 687.6,231.8 689,232.4 690.3,233.1 691.5,233.9 
		692.5,234.6 693.5,235.5 694.3,236.4 695.1,237.2 695.8,238.1 696.4,238.9 696.9,239.7 697.3,240.5 697.3,240.5 701.9,214.6 
		719.8,214.6 704.9,300.7 704.9,300.7 	"/>
	<polyline class="st3" points="704.9,300.7 686.7,300.7 688,293.4 688,292.8 688,292.8 687,294.1 685.9,295.3 684.7,296.3 
		683.6,297.3 682.4,298.1 681.2,298.8 680,299.4 678.7,300 677.5,300.5 676.2,300.8 675,301.1 673.7,301.3 672.4,301.5 671.1,301.7 
		669.8,301.7 668.5,301.7 668.5,301.7 665.1,301.5 661.9,300.7 659,299.6 656.4,298.1 654,296.2 651.9,294 650,291.5 648.5,288.8 
		647.1,285.8 646.1,282.7 645.4,279.5 644.8,276.1 644.6,272.8 644.7,269.3 645,266 645.6,262.6 645.6,262.6 646.6,258.7 
		647.8,255.1 649.2,251.7 650.8,248.5 652.5,245.6 654.5,242.9 656.6,240.6 658.7,238.4 661,236.5 663.5,234.8 666,233.4 
		668.5,232.3 671.1,231.4 673.7,230.8 676.4,230.4 679.1,230.2 679.1,230.2 681,230.3 682.8,230.5 684.5,230.8 686.1,231.3 
		687.6,231.8 689,232.4 690.3,233.1 691.5,233.9 692.5,234.6 693.5,235.5 694.3,236.4 695.1,237.2 695.8,238.1 696.4,238.9 
		696.9,239.7 697.3,240.5 697.3,240.5 701.9,214.6 719.8,214.6 704.9,300.7 	"/>
	<polygon class="st0" points="675.1,284.8 677,284.7 678.7,284.3 680.3,283.8 681.8,283.1 683.2,282.3 684.5,281.3 685.7,280.2 
		686.8,279 687.8,277.7 688.8,276.3 689.6,274.7 690.3,273.2 691,271.5 691.5,269.8 692,268 692.3,266.2 692.6,264.4 692.8,262.5 
		692.8,260.7 692.8,258.9 692.6,257.2 692.3,255.5 691.8,253.9 691.3,252.4 690.7,251.1 689.9,249.9 689,248.8 688,247.9 
		686.9,247.1 685.7,246.6 684.5,246.2 683.1,246.1 681.3,246.2 679.7,246.5 678.2,247 676.6,247.7 675.3,248.5 674,249.6 
		672.9,250.7 671.8,252 670.8,253.4 669.9,254.9 669,256.5 668.3,258.2 667.6,260 667.1,261.8 666.6,263.7 666.2,265.6 665.8,268.5 
		666,271.6 666.4,274.9 667.3,278 668.6,280.7 670.3,282.8 672.5,284.3 675.1,284.8 675.1,284.8 	"/>
	<polygon class="st2" points="270.9,286.1 268.2,300.7 251.6,300.7 252.1,298 252.4,295.6 252.7,293.8 253,292.8 252,293.8 
		251,294.9 249.7,295.9 248.4,296.8 246.8,297.7 245.1,298.5 243.4,299.3 241.6,300 239.7,300.5 237.8,301 235.9,301.4 233.9,301.7 
		232,301.8 230.1,301.9 228.3,301.7 226.5,301.4 224.2,300.8 222.1,300.1 220.2,299.3 218.6,298.3 217.1,297.3 215.8,296.1 
		214.8,294.8 213.9,293.5 213.1,292.1 212.4,290.7 211.9,289.2 211.5,287.8 211.2,286.3 211,284.7 210.9,283.3 210.9,281.8 
		211.1,279.3 211.5,276.8 212.1,274.5 213,272.3 214.1,270.2 215.2,268.3 216.6,266.4 218.2,264.8 219.8,263.3 221.7,261.9 
		223.6,260.7 225.6,259.6 227.7,258.7 229.9,258 232.1,257.4 234.4,257 234.5,257 234.9,256.9 235.3,256.8 236,256.8 236.8,256.6 
		237.8,256.6 238.7,256.4 239.9,256.3 241,256.2 242.1,256 243.3,256 244.3,255.8 245.4,255.8 246.4,255.7 247.3,255.6 248,255.6 
		249.5,255.6 251.1,255.7 252.6,255.8 254,255.8 255.2,255.8 256.1,255.9 256.8,256 257,256 257.1,255.5 257.5,254.3 257.8,252.9 
		258,251.7 257.7,250.3 257.1,248.9 256.3,247.7 255.3,246.8 254,245.9 252.6,245.3 251,244.9 249.3,244.8 247.5,244.7 245.5,244.7 
		243.5,244.7 241.4,244.7 239.2,244.9 237.1,245 235,245.2 232.9,245.5 231,245.8 229.1,246.1 227.4,246.4 225.8,246.8 224.3,247.2 
		223.1,247.6 222.2,248 221.5,248.4 226.2,232.5 227.6,231.9 229.1,231.4 230.6,231 232.2,230.6 233.8,230.3 235.5,230 237.2,229.8 
		239,229.6 240.8,229.5 242.8,229.4 244.7,229.4 246.8,229.4 248.9,229.4 251,229.4 253.4,229.4 255.7,229.5 257.5,229.6 259.5,230 
		261.5,230.4 263.6,231 265.7,231.8 267.6,232.7 269.6,233.9 271.5,235.1 273.1,236.6 274.6,238.1 275.9,239.9 276.9,241.9 
		277.5,244 277.9,246.2 277.9,248.7 277.5,251.4 270.9,286.1 270.9,286.1 	"/>
	<polyline class="st3" points="270.9,286.1 268.2,300.7 251.6,300.7 251.6,300.7 252.1,298 252.4,295.6 252.7,293.8 253,292.8 
		253,292.8 252,293.8 251,294.9 249.7,295.9 248.4,296.8 246.8,297.7 245.1,298.5 243.4,299.3 241.6,300 239.7,300.5 237.8,301 
		235.9,301.4 233.9,301.7 232,301.8 230.1,301.9 228.3,301.7 226.5,301.4 226.5,301.4 224.2,300.8 222.1,300.1 220.2,299.3 
		218.6,298.3 217.1,297.3 215.8,296.1 214.8,294.8 213.9,293.5 213.1,292.1 212.4,290.7 211.9,289.2 211.5,287.8 211.2,286.3 
		211,284.7 210.9,283.3 210.9,281.8 210.9,281.8 211.1,279.3 211.5,276.8 212.1,274.5 213,272.3 214.1,270.2 215.2,268.3 
		216.6,266.4 218.2,264.8 219.8,263.3 221.7,261.9 223.6,260.7 225.6,259.6 227.7,258.7 229.9,258 232.1,257.4 234.4,257 234.4,257 
		234.5,257 234.9,256.9 235.3,256.8 236,256.8 236.8,256.6 237.8,256.6 238.7,256.4 239.9,256.3 241,256.2 242.1,256 243.3,256 
		244.3,255.8 245.4,255.8 246.4,255.7 247.3,255.6 248,255.6 248,255.6 249.5,255.6 251.1,255.7 252.6,255.8 254,255.8 255.2,255.8 
		256.1,255.9 256.8,256 257,256 257,256 257.1,255.5 257.5,254.3 257.8,252.9 258,251.7 258,251.7 257.7,250.3 257.1,248.9 
		256.3,247.7 255.3,246.8 254,245.9 252.6,245.3 251,244.9 249.3,244.8 249.3,244.8 247.5,244.7 245.5,244.7 243.5,244.7 
		241.4,244.7 239.2,244.9 237.1,245 235,245.2 232.9,245.5 231,245.8 229.1,246.1 227.4,246.4 225.8,246.8 224.3,247.2 223.1,247.6 
		222.2,248 221.5,248.4 226.2,232.5 226.2,232.5 227.6,231.9 229.1,231.4 230.6,231 232.2,230.6 233.8,230.3 235.5,230 237.2,229.8 
		239,229.6 240.8,229.5 242.8,229.4 244.7,229.4 246.8,229.4 248.9,229.4 251,229.4 253.4,229.4 255.7,229.5 255.7,229.5 
		257.5,229.6 259.5,230 261.5,230.4 263.6,231 265.7,231.8 267.6,232.7 269.6,233.9 271.5,235.1 273.1,236.6 274.6,238.1 
		275.9,239.9 276.9,241.9 277.5,244 277.9,246.2 277.9,248.7 277.5,251.4 270.9,286.1 	"/>
	<polygon class="st1" points="255,268.9 254.9,268.6 254.7,268.3 254.3,268.1 253.6,268 252.9,267.8 252,267.8 251,267.8 
		250.1,267.8 249,267.8 247.9,268 246.8,268.1 245.8,268.2 244.8,268.4 243.9,268.6 243.1,268.7 242.4,268.9 241.9,269.1 
		241.4,269.3 240.6,269.5 239.9,269.9 239.1,270.3 238.2,270.7 237.3,271.2 236.4,271.7 235.5,272.4 234.7,273 233.9,273.8 
		233.1,274.6 232.5,275.5 232,276.4 231.6,277.4 231.4,278.5 231.4,280.7 231.7,282.5 232.4,283.8 233.2,284.8 234.2,285.5 
		235.3,285.9 236.4,286.1 237.4,286.1 239.4,286.1 241.2,285.9 242.9,285.6 244.4,285.2 245.7,284.7 247,284.2 248.1,283.6 
		249.1,282.8 249.9,282.2 250.7,281.4 251.4,280.7 251.9,279.9 252.4,279.1 252.8,278.3 253.1,277.6 253.3,276.8 253.8,274.9 
		254.3,272.8 254.7,270.7 255,268.9 255,268.9 	"/>
	<polygon class="st2" points="132.4,300.7 114.5,300.7 129.4,214.3 160.5,214.3 163.5,265.6 185,214.3 217.5,214.3 202.3,300.7 
		184.4,300.7 195.7,236.2 195,236.2 168.2,300.7 148,300.7 147.8,298 147.4,290.9 146.8,280.7 146.1,268.9 145.5,257.2 144.9,246.8 
		144.4,239.3 144.3,236.2 144.1,236.2 143.7,236.2 143.3,236.2 143.3,236.2 132.4,300.7 132.4,300.7 	"/>
	<polyline class="st3" points="132.4,300.7 114.5,300.7 129.4,214.3 160.5,214.3 163.5,265.6 185,214.3 217.5,214.3 202.3,300.7 
		184.4,300.7 195.7,236.2 195,236.2 168.2,300.7 148,300.7 148,300.7 147.8,298 147.4,290.9 146.8,280.7 146.1,268.9 145.5,257.2 
		144.9,246.8 144.4,239.3 144.3,236.2 144.3,236.2 144.1,236.2 143.7,236.2 143.3,236.2 143.3,236.2 132.4,300.7 	"/>
	<polygon class="st2" points="597.6,286.1 594.9,300.7 578.4,300.7 578.5,298 578.6,295.7 578.6,293.9 578.7,293.1 577.8,294.1 
		576.8,295.1 575.7,296 574.3,296.9 573,297.8 571.4,298.6 569.7,299.4 568.1,300 566.3,300.5 564.5,301.1 562.6,301.4 560.8,301.7 
		558.9,301.8 557,301.9 555.3,301.7 553.5,301.4 551.1,300.8 549,300.1 547.2,299.3 545.4,298.3 544,297.3 542.7,296.1 541.7,294.8 
		540.8,293.5 540,292.1 539.4,290.7 538.9,289.2 538.5,287.8 538.3,286.3 538.1,284.7 537.9,283.3 537.9,281.8 538.1,279.3 
		538.5,276.8 539.1,274.5 539.9,272.3 540.9,270.2 542.1,268.3 543.5,266.4 545,264.8 546.8,263.3 548.5,261.9 550.4,260.7 
		552.5,259.6 554.5,258.7 556.7,258 558.9,257.4 561.1,257 561.2,257 561.6,256.9 562,256.8 562.7,256.8 563.5,256.6 564.5,256.6 
		565.5,256.4 566.5,256.3 567.6,256.2 568.8,256 569.9,256 571,255.8 572.1,255.8 573,255.7 573.9,255.6 574.7,255.6 576.3,255.6 
		577.8,255.7 579.3,255.8 580.8,255.8 582,255.8 583.1,255.9 583.7,256 584,256 584.1,255.5 584.3,254.3 584.5,252.9 584.6,251.7 
		584.3,250.3 583.8,248.9 583,247.7 582,246.8 580.8,245.9 579.4,245.3 578,244.9 576.4,244.8 574.5,244.7 572.6,244.7 570.5,244.7 
		568.4,244.7 566.2,244.9 564.1,245 562,245.2 560,245.5 558,245.8 556.1,246.1 554.4,246.4 552.8,246.8 551.4,247.2 550.2,247.6 
		549.3,248 548.5,248.4 553.1,232.5 554.6,231.9 556.1,231.4 557.6,231 559.2,230.6 560.8,230.3 562.5,230 564.2,229.8 566,229.6 
		567.8,229.5 569.7,229.4 571.6,229.4 573.7,229.4 575.7,229.4 577.8,229.4 580.1,229.4 582.3,229.5 584.1,229.6 586.1,230 
		588.2,230.4 590.3,231 592.3,231.8 594.4,232.7 596.3,233.9 598.2,235.1 599.8,236.6 601.3,238.1 602.6,239.9 603.6,241.9 
		604.4,244 604.8,246.2 604.8,248.7 604.5,251.4 597.6,286.1 597.6,286.1 	"/>
	<polygon class="st2" points="594.9,301.2 595.3,300.8 598,286.2 597.2,286.1 594.5,300.7 594.9,300.3 594.9,301.2 595.2,301.1 
		595.3,300.8 594.9,301.2 594.9,301.2 	"/>
	<polygon class="st2" points="578,300.7 578.4,301.2 594.9,301.2 594.9,300.3 578.4,300.3 578.8,300.7 578,300.7 577.9,301.2 
		578.4,301.2 578,300.7 578,300.7 	"/>
	<polygon class="st2" points="579,293.4 578.4,292.8 578.2,293.9 578.1,295.7 578.1,298 578,300.7 578.8,300.7 578.9,298 579,295.7 
		578.9,293.9 578.9,293.4 578.4,292.8 579,293.4 579,293.4 	"/>
	<polygon class="st2" points="553.4,301.8 553.4,301.8 555.3,302.1 557,302.3 558.9,302.2 560.8,302.1 562.7,301.8 564.5,301.5 
		566.4,300.9 568.2,300.4 569.9,299.8 571.6,299 573.2,298.2 574.5,297.3 575.9,296.3 577.1,295.4 578.2,294.4 579,293.4 
		578.4,292.8 577.5,293.8 576.6,294.8 575.4,295.7 574.1,296.6 572.8,297.4 571.2,298.2 569.6,299 568,299.6 566.2,300.1 
		564.4,300.7 562.6,301 560.8,301.3 558.9,301.4 557,301.5 555.3,301.3 553.5,301 553.5,301 553.4,301.8 553.4,301.8 	"/>
	<polygon class="st2" points="537.5,281.8 537.5,281.8 537.5,283.3 537.7,284.7 537.9,286.3 538.1,287.8 538.5,289.3 539,290.8 
		539.6,292.3 540.4,293.7 541.4,295.1 542.4,296.3 543.7,297.6 545.2,298.6 547,299.7 548.9,300.5 551,301.2 553.4,301.8 553.5,301 
		551.2,300.4 549.1,299.8 547.4,298.9 545.6,298 544.3,296.9 543.1,295.8 542,294.6 541.1,293.3 540.4,291.9 539.8,290.5 
		539.3,289.2 538.9,287.7 538.7,286.2 538.5,284.7 538.3,283.3 538.4,281.8 538.4,281.8 537.5,281.8 537.5,281.8 	"/>
	<polygon class="st2" points="561.1,256.6 561.1,256.6 558.8,257 556.6,257.6 554.4,258.3 552.3,259.2 550.2,260.3 548.3,261.6 
		546.5,263 544.8,264.5 543.2,266.2 541.8,268 540.5,270 539.5,272.2 538.7,274.4 538.1,276.8 537.7,279.3 537.5,281.8 538.4,281.8 
		538.5,279.3 538.9,276.9 539.5,274.7 540.3,272.4 541.3,270.4 542.5,268.6 543.9,266.7 545.3,265.1 547,263.6 548.8,262.2 
		550.6,261 552.7,260 554.7,259.1 556.8,258.3 558.9,257.8 561.1,257.4 561.1,257.4 561.1,256.6 561.1,256.6 	"/>
	<polygon class="st2" points="574.7,255.2 574.7,255.2 573.9,255.2 573,255.3 572.1,255.4 571,255.5 569.9,255.6 568.8,255.6 
		567.6,255.8 566.5,255.9 565.5,256 564.5,256.2 563.5,256.2 562.7,256.4 562,256.4 561.5,256.5 561.2,256.6 561.1,256.6 
		561.1,257.4 561.2,257.4 561.6,257.3 562,257.2 562.7,257.2 563.5,257 564.5,257 565.5,256.8 566.5,256.7 567.6,256.6 568.8,256.4 
		569.9,256.4 571,256.2 572.1,256.2 573,256.1 573.9,256.1 574.7,256.1 574.7,256.1 574.7,255.2 574.7,255.2 	"/>
	<polygon class="st2" points="583.6,255.9 584,255.6 583.7,255.6 583.1,255.5 582,255.5 580.8,255.3 579.3,255.3 577.8,255.3 
		576.3,255.2 574.7,255.2 574.7,256.1 576.3,256.1 577.8,256.1 579.3,256.2 580.8,256.2 582,256.2 583.1,256.3 583.7,256.4 
		584,256.4 584.3,256 584,256.4 584.3,256.4 584.3,256 583.6,255.9 583.6,255.9 	"/>
	<polygon class="st2" points="584.2,251.7 584.1,251.7 584.1,252.9 583.9,254.3 583.7,255.5 583.6,255.9 584.3,256 584.5,255.6 
		584.7,254.4 584.9,252.9 585.1,251.7 585,251.7 584.2,251.7 584.2,251.7 	"/>
	<polygon class="st2" points="576.4,245.2 576.4,245.2 577.9,245.3 579.3,245.7 580.6,246.3 581.7,247.1 582.6,248 583.4,249.1 
		584,250.3 584.2,251.7 585,251.7 584.7,250.2 584.2,248.7 583.3,247.5 582.2,246.4 581,245.5 579.5,244.9 578,244.5 576.4,244.3 
		576.4,244.4 576.4,245.2 576.4,245.2 	"/>
	<polygon class="st2" points="548.1,248.3 548.8,248.7 549.5,248.4 550.3,247.9 551.4,247.6 552.9,247.2 554.5,246.8 556.2,246.5 
		558.1,246.2 560,245.9 562,245.6 564.1,245.4 566.2,245.2 568.4,245.1 570.5,245.1 572.6,245.1 574.5,245.1 576.4,245.2 
		576.4,244.4 574.5,244.3 572.6,244.2 570.5,244.2 568.4,244.3 566.2,244.5 564.1,244.7 562,244.9 560,245.1 557.9,245.4 556,245.7 
		554.3,246 552.7,246.4 551.3,246.8 550,247.2 549.1,247.6 548.3,248.1 548.9,248.5 548.1,248.3 548.1,248.3 	"/>
	<polygon class="st2" points="553,232.1 552.7,232.5 548.1,248.3 548.9,248.5 553.5,232.6 553.3,232.9 553,232.1 552.8,232.2 
		552.7,232.5 553,232.1 553,232.1 	"/>
	<polygon class="st2" points="582.3,229.1 582.3,229.1 580.1,229 577.8,228.9 575.7,228.9 573.7,228.9 571.6,228.9 569.7,229.1 
		567.8,229.1 566,229.3 564.2,229.4 562.4,229.6 560.8,229.9 559.1,230.2 557.6,230.6 556,231 554.5,231.6 553,232.1 553.3,232.9 
		554.7,232.3 556.2,231.8 557.7,231.4 559.3,231 560.9,230.7 562.6,230.4 564.2,230.2 566,230 567.8,229.9 569.7,229.8 571.6,229.8 
		573.7,229.8 575.7,229.8 577.8,229.8 580.1,229.9 582.3,229.9 582.3,229.9 582.3,229.1 582.3,229.1 	"/>
	<polygon class="st2" points="604.9,251.4 604.9,251.4 605.2,248.7 605.2,246.2 604.8,243.9 604,241.8 603,239.7 601.7,237.9 
		600.1,236.2 598.4,234.8 596.5,233.5 594.6,232.3 592.4,231.4 590.4,230.6 588.2,230 586.2,229.6 584.1,229.3 582.3,229.1 
		582.3,229.9 584.1,230 586.1,230.4 588.1,230.8 590.1,231.4 592.2,232.2 594.2,233.1 596.1,234.2 597.9,235.4 599.6,236.9 
		601,238.4 602.3,240.1 603.2,242 604,244.1 604.4,246.2 604.4,248.7 604.1,251.3 604.1,251.3 604.9,251.4 604.9,251.4 	"/>
	<polygon class="st2" points="598,286.2 598,286.2 604.9,251.4 604.1,251.3 597.2,286.1 597.2,286.1 598,286.2 598,286.2 	"/>
	<polygon class="st0" points="581.6,268.9 581.5,268.6 581.3,268.2 580.8,268 580.1,267.8 579.4,267.8 578.6,267.7 577.6,267.7 
		576.6,267.8 575.5,267.9 574.5,268 573.4,268.2 572.4,268.3 571.4,268.5 570.6,268.6 569.7,268.8 569.1,268.9 568.6,269 
		568.1,269.2 567.4,269.4 566.7,269.7 565.8,270.1 565.1,270.5 564.1,270.9 563.3,271.5 562.4,272.1 561.6,272.8 560.8,273.6 
		560.1,274.4 559.5,275.3 559.1,276.3 558.7,277.4 558.5,278.5 558.4,280.7 558.7,282.5 559.3,283.8 560.1,284.8 561,285.5 
		562.2,285.9 563.3,286.1 564.4,286.1 566.4,286.1 568.2,285.9 569.9,285.5 571.4,285.1 572.9,284.5 574.1,284 575.3,283.3 
		576.4,282.5 577.3,281.8 578.1,280.9 578.8,280.1 579.4,279.3 579.9,278.5 580.2,277.7 580.5,276.9 580.7,276.2 580.9,274.3 
		581.3,272.4 581.5,270.6 581.6,268.9 581.6,268.9 	"/>
	<polygon class="st2" points="717.3,291.7 717.4,290.2 717.9,288.4 718.8,286.9 720,285.5 721.3,284.3 722.9,283.6 724.6,283 
		726.5,282.8 728.3,283 730,283.6 731.6,284.3 733,285.5 734.1,286.9 735,288.4 735.6,290.2 735.7,291.7 733.7,291.7 733.6,290.5 
		733.3,289.1 732.6,287.8 731.7,286.7 730.7,285.7 729.4,285.1 728,284.6 726.5,284.5 725,284.6 723.5,285.1 722.3,285.7 
		721.2,286.7 720.4,287.8 719.7,289.1 719.3,290.5 719.2,291.7 717.3,291.7 717.3,291.7 	"/>
	<polygon class="st2" points="723.2,291.7 723.2,287.8 726.8,287.8 727.6,287.8 728.3,288 728.8,288.2 729.3,288.4 729.6,288.8 
		729.9,289.2 730,289.7 730.1,290.1 730,290.7 729.9,291.2 729.7,291.6 729.6,291.7 726.8,291.7 727.1,291.7 727.5,291.6 
		727.9,291.5 728.3,291.3 728.5,291.1 728.6,290.9 728.8,290.6 728.8,290.1 728.7,289.8 728.6,289.6 728.4,289.4 728.2,289.3 
		727.9,289.2 727.5,289.2 727.2,289.2 726.8,289.2 724.8,289.2 724.8,291.7 723.2,291.7 723.2,291.7 	"/>
	<polygon class="st2" points="717.3,291.7 717.2,292.1 717.4,294 717.9,295.8 718.8,297.4 720,298.7 721.3,299.8 722.9,300.7 
		724.6,301.2 726.5,301.4 728.3,301.2 730,300.7 731.6,299.8 733,298.7 734.1,297.4 735,295.8 735.6,294 735.8,292.1 735.7,291.7 
		733.7,291.7 733.8,292.1 733.6,293.7 733.3,295.1 732.6,296.4 731.7,297.5 730.7,298.4 729.4,299.2 728,299.6 726.5,299.8 
		725,299.6 723.5,299.2 722.3,298.4 721.2,297.5 720.4,296.4 719.7,295.1 719.3,293.7 719.2,292.1 719.2,291.7 717.3,291.7 
		717.3,291.7 	"/>
	<polygon class="st2" points="723.2,291.7 723.2,295.7 724.8,295.7 724.8,292.4 726.5,292.4 728.4,295.7 729.8,295.7 727.8,292.4 
		728.3,292.4 728.7,292.3 729.1,292.2 729.4,291.9 729.6,291.7 726.8,291.7 726.5,291.8 724.8,291.8 724.8,291.7 723.2,291.7 
		723.2,291.7 	"/>
	<path class="st3" d="M717.2,292.1L717.2,292.1l0.2-1.9l0.5-1.8l0.9-1.6l1.1-1.4l1.4-1.1l1.6-0.8l1.7-0.5l1.8-0.2l0,0l1.8,0.2
		l1.7,0.5l1.6,0.8l1.4,1.1l1.1,1.4l0.9,1.6l0.5,1.8l0.2,1.9l0,0l-0.2,1.9l-0.5,1.8l-0.9,1.6l-1.1,1.3l-1.4,1.1l-1.6,0.9l-1.7,0.5
		l-1.8,0.2l0,0l-1.8-0.2l-1.7-0.5l-1.6-0.9l-1.4-1.1l-1.1-1.3l-0.9-1.6l-0.5-1.8L717.2,292.1 M724.8,295.7h-1.6v-8h3.6l0,0l0.8,0.1
		l0.7,0.1l0.5,0.2l0.5,0.3l0.3,0.4l0.3,0.4l0.1,0.5l0.1,0.5l0,0l-0.1,0.6l-0.1,0.5l-0.2,0.4l-0.3,0.3l-0.3,0.3l-0.4,0.1l-0.5,0.1
		h-0.5l2,3.3h-1.3l-2-3.3h-1.6V295.7 M726.5,291.8L726.5,291.8l0.6-0.1l0.5-0.1l0.4-0.1l0.3-0.1l0.3-0.2l0.1-0.2l0.1-0.3v-0.5l0,0
		l-0.1-0.3l-0.1-0.3l-0.2-0.1l-0.2-0.1l-0.3-0.1l-0.3-0.1h-0.3h-0.4h-2v2.6H726.5 M726.5,299.8L726.5,299.8l1.5-0.1l1.4-0.5l1.3-0.7
		l1.1-0.9l0.9-1.1l0.7-1.3l0.4-1.4l0.1-1.6l0,0l-0.1-1.6l-0.4-1.4l-0.7-1.3l-0.9-1.1l-1.1-0.9l-1.3-0.7l-1.4-0.5l-1.5-0.1l0,0
		l-1.5,0.1l-1.4,0.5l-1.3,0.7l-1.1,0.9l-0.9,1.1l-0.7,1.3l-0.4,1.4l-0.1,1.6l0,0l0.1,1.6l0.4,1.4l0.7,1.3l0.9,1.1l1.1,0.9l1.3,0.7
		l1.4,0.5L726.5,299.8"/>
	<polygon class="st2" points="602.5,300.7 621.1,300.7 621.1,300.7 627.7,263.3 628,261.8 628.4,260.4 628.8,258.9 629.3,257.5 
		630,256 630.8,254.7 631.6,253.3 632.7,252.1 633.9,251 635.2,249.9 636.7,248.9 638.4,248.1 640.3,247.5 642.4,247 644.7,246.6 
		647.3,246.4 648.2,246.4 648.7,246.4 648.9,246.4 648.9,246.4 651.9,229.5 650,229.6 648.3,229.8 646.6,230.2 645,230.6 
		643.6,231.2 642.2,231.8 640.9,232.5 639.6,233.3 638.5,234.3 637.3,235.2 636.3,236.2 635.2,237.3 634.2,238.4 633.3,239.7 
		632.3,240.8 631.3,242.2 633.3,230.2 614.8,230.2 602.5,300.7 602.5,300.7 602.5,300.7 	"/>
	<polyline class="st3" points="602.5,300.7 621.1,300.7 621.1,300.7 627.7,263.3 627.7,263.3 628,261.8 628.4,260.4 628.8,258.9 
		629.3,257.5 630,256 630.8,254.7 631.6,253.3 632.7,252.1 633.9,251 635.2,249.9 636.7,248.9 638.4,248.1 640.3,247.5 642.4,247 
		644.7,246.6 647.3,246.4 647.3,246.4 648.2,246.4 648.7,246.4 648.9,246.4 648.9,246.4 651.9,229.5 651.9,229.5 650,229.6 
		648.3,229.8 646.6,230.2 645,230.6 643.6,231.2 642.2,231.8 640.9,232.5 639.6,233.3 638.5,234.3 637.3,235.2 636.3,236.2 
		635.2,237.3 634.2,238.4 633.3,239.7 632.3,240.8 631.3,242.2 633.3,230.2 614.8,230.2 602.5,300.7 602.5,300.7 	"/>
	<polygon class="st2" points="428.2,300.7 446.8,300.7 447.1,300.7 453.4,263.3 453.7,261.8 454,260.5 454.3,259.1 454.8,257.8 
		455.3,256.4 456,255.2 456.8,254 457.7,252.9 458.7,251.9 459.9,250.9 461.4,250.1 463,249.4 464.8,248.8 466.8,248.3 469.1,247.9 
		471.6,247.7 471.8,247.7 472.1,247.8 472.4,247.9 472.8,247.9 473.1,247.9 473.4,248 473.6,248.1 473.6,248.1 473.7,247.8 
		473.9,247 474.1,245.8 474.5,244.4 474.9,242.7 475.4,240.8 476,239 476.6,237.1 477.1,235.9 477.8,234.6 478.4,233.4 479.1,232.3 
		479.7,231.3 480.1,230.5 480.5,230 480.6,229.8 480.5,229.8 480.3,229.8 479.9,229.7 479.5,229.6 479,229.6 478.5,229.6 478,229.5 
		477.6,229.5 475.5,229.6 473.7,229.8 472,230.2 470.4,230.6 468.9,231.1 467.5,231.8 466.2,232.4 465.1,233.2 463.9,234.1 
		462.9,235 461.9,236 460.9,237.1 459.9,238.3 459,239.5 458,240.8 457,242.2 459.4,230.2 440.5,230.2 428.2,300.7 428.2,300.7 
		428.2,300.7 	"/>
	<polyline class="st3" points="428.2,300.7 446.8,300.7 447.1,300.7 453.4,263.3 453.4,263.3 453.7,261.8 454,260.5 454.3,259.1 
		454.8,257.8 455.3,256.4 456,255.2 456.8,254 457.7,252.9 458.7,251.9 459.9,250.9 461.4,250.1 463,249.4 464.8,248.8 466.8,248.3 
		469.1,247.9 471.6,247.7 471.6,247.7 471.8,247.7 472.1,247.8 472.4,247.9 472.8,247.9 473.1,247.9 473.4,248 473.6,248.1 
		473.6,248.1 473.6,248.1 473.7,247.8 473.9,247 474.1,245.8 474.5,244.4 474.9,242.7 475.4,240.8 476,239 476.6,237.1 476.6,237.1 
		477.1,235.9 477.8,234.6 478.4,233.4 479.1,232.3 479.7,231.3 480.1,230.5 480.5,230 480.6,229.8 480.6,229.8 480.5,229.8 
		480.3,229.8 479.9,229.7 479.5,229.6 479,229.6 478.5,229.6 478,229.5 477.6,229.5 477.6,229.5 475.5,229.6 473.7,229.8 472,230.2 
		470.4,230.6 468.9,231.1 467.5,231.8 466.2,232.4 465.1,233.2 463.9,234.1 462.9,235 461.9,236 460.9,237.1 459.9,238.3 459,239.5 
		458,240.8 457,242.2 459.4,230.2 440.5,230.2 428.2,300.7 428.2,300.7 	"/>
	<polygon class="st0" points="717.4,370 717.4,369.7 717.9,368 718.8,366.5 720,365.2 721.3,364.1 722.9,363.3 724.6,362.9 
		726.5,362.7 728.3,362.9 730,363.3 731.6,364.1 733,365.2 734.1,366.5 735,368 735.6,369.7 735.6,370 733.6,370 733.3,368.6 
		732.6,367.4 731.7,366.2 730.7,365.3 729.4,364.6 728,364.1 726.5,364 725,364.1 723.5,364.6 722.3,365.3 721.2,366.2 720.4,367.4 
		719.7,368.6 719.3,370 717.4,370 717.4,370 	"/>
	<polygon class="st0" points="723.2,370 723.2,367.7 726.8,367.7 727.6,367.7 728.3,367.8 728.8,368 729.3,368.2 729.6,368.5 
		729.9,368.9 730,369.4 730.1,370 728.8,370 728.8,369.7 728.7,369.3 728.6,369.1 728.4,368.9 728.2,368.8 727.9,368.7 727.5,368.7 
		727.2,368.7 726.8,368.7 724.8,368.7 724.8,370 723.2,370 723.2,370 	"/>
	<polygon class="st0" points="717.2,371.4 717.4,370 719.3,370 719.3,370.1 719.2,371.4 717.2,371.4 717.2,371.4 	"/>
	<polygon class="st0" points="723.2,371.4 723.2,370 724.8,370 724.8,371.3 726.5,371.3 727.1,371.2 727.5,371.1 727.9,371 
		728.3,370.9 728.5,370.7 728.6,370.5 728.8,370.1 728.8,370 730.1,370 730.1,370 730,370.5 729.9,370.9 729.7,371.2 729.4,371.4 
		723.2,371.4 723.2,371.4 	"/>
	<polygon class="st0" points="733.8,371.4 733.6,370.1 733.6,370 735.6,370 735.8,371.4 733.8,371.4 733.8,371.4 	"/>
	<polygon class="st0" points="717.2,371.4 717.2,371.6 717.4,373.5 717.9,375.3 718.8,376.9 720,378.3 721.3,379.4 722.9,380.2 
		724.6,380.7 726.5,380.9 728.3,380.7 730,380.2 731.6,379.4 733,378.3 734.1,376.9 735,375.3 735.6,373.5 735.8,371.6 735.8,371.4 
		733.8,371.4 733.8,371.6 733.6,373.2 733.3,374.7 732.6,375.9 731.7,377 730.7,378 729.4,378.7 728,379.1 726.5,379.3 725,379.1 
		723.5,378.7 722.3,378 721.2,377 720.4,375.9 719.7,374.7 719.3,373.2 719.2,371.6 719.2,371.4 717.2,371.4 717.2,371.4 	"/>
	<polygon class="st0" points="723.2,371.4 723.2,375.3 724.8,375.3 724.8,372 726.5,372 728.4,375.3 729.8,375.3 727.8,372 
		728.3,372 728.7,371.8 729.1,371.7 729.4,371.4 729.4,371.4 723.2,371.4 723.2,371.4 	"/>
</g>
</svg>
