<?xml version="1.0" encoding="utf-8"?>
<!-- Generator: Adobe Illustrator 24.1.2, SVG Export Plug-In . SVG Version: 6.00 Build 0)  -->
<svg version="1.1" id="레이어_1" xmlns="http://www.w3.org/2000/svg" xmlns:xlink="http://www.w3.org/1999/xlink" x="0px"
	 y="0px" viewBox="0 0 500 130" style="enable-background:new 0 0 500 130;" xml:space="preserve">
<style type="text/css">
	.st0{fill:#1C1C1B;}
	.st1{fill:#E20C16;}
	.st2{fill:#EA6008;}
	.st3{fill:#F59E00;}
</style>
<g>
	<g>
		<path class="st0" d="M212.7,53c-0.9-0.9-2.1-1.7-3.4-2.2c-1.3-0.5-2.7-0.8-4.3-0.8c-0.8,0-1.7,0.1-2.5,0.2
			c-0.9,0.1-1.7,0.4-2.6,0.7c-0.8,0.4-1.6,0.8-2.4,1.5c-0.8,0.6-1.4,1.4-2,2.4c-0.9-1.5-2.1-2.7-3.7-3.5c-1.6-0.9-3.3-1.3-5.3-1.3
			c-0.7,0-1.4,0.1-2.1,0.2c-0.7,0.1-1.4,0.3-2.1,0.6c-0.7,0.3-1.4,0.7-2,1.2s-1.2,1.2-1.8,2v-3.3h-5.7v27h5.7V62.8
			c0-1.1,0.2-2.2,0.5-3.1c0.4-0.9,0.8-1.6,1.5-2.2c0.6-0.6,1.3-1.1,2.1-1.4s1.7-0.5,2.6-0.5c1.9,0,3.4,0.6,4.5,1.8s1.6,3,1.6,5.2v15
			h5.7V62.7c0-1.1,0.2-2.2,0.5-3.1c0.4-0.9,0.8-1.6,1.5-2.2c0.6-0.6,1.3-1.1,2.1-1.4s1.7-0.5,2.6-0.5c1.9,0,3.4,0.6,4.5,1.8
			s1.6,3,1.6,5.2v15h5.7V60.6c0-1.6-0.3-3-0.8-4.3C214.4,55.1,213.6,54,212.7,53z"/>
		<path class="st0" d="M242.8,54c-0.9-1.2-2.1-2.2-3.5-2.9s-3-1.1-5-1.1c-1.9,0-3.7,0.4-5.3,1.1s-3.1,1.7-4.3,2.9
			c-1.2,1.3-2.2,2.8-2.9,4.5s-1,3.6-1,5.7s0.3,4,1,5.7s1.6,3.2,2.9,4.5c1.2,1.3,2.6,2.2,4.3,2.9c1.6,0.7,3.4,1.1,5.3,1.1
			c1.9,0,3.6-0.4,5-1.1s2.5-1.7,3.5-2.9v3.2h5.9V50.7h-5.9V54z M242.6,67.6c-0.4,1-0.9,2-1.7,2.7c-0.7,0.8-1.6,1.4-2.6,1.8
			s-2.1,0.7-3.3,0.7c-1.3,0-2.4-0.2-3.4-0.7s-1.9-1.1-2.5-1.9c-0.7-0.8-1.2-1.7-1.6-2.7c-0.4-1-0.6-2.2-0.6-3.3
			c0-1.2,0.2-2.3,0.6-3.3c0.4-1,0.9-2,1.6-2.7c0.7-0.8,1.5-1.4,2.5-1.9s2.1-0.7,3.4-0.7c1.2,0,2.3,0.2,3.3,0.7c1,0.4,1.8,1,2.6,1.8
			c0.7,0.8,1.3,1.7,1.7,2.7s0.6,2.2,0.6,3.4C243.2,65.4,243,66.6,242.6,67.6z"/>
		<path class="st0" d="M275.7,64.2c-1.6-1.3-3.9-2.1-6.9-2.6l-2.8-0.4c-0.6-0.1-1.2-0.2-1.7-0.3s-1-0.3-1.4-0.5s-0.7-0.5-0.9-0.8
			c-0.2-0.3-0.4-0.7-0.4-1.2c0-1,0.4-1.7,1.3-2.3s2.1-0.9,3.8-0.9c0.8,0,1.7,0.1,2.5,0.2c0.8,0.2,1.6,0.3,2.3,0.6
			c0.7,0.2,1.4,0.5,2,0.7c0.6,0.3,1.1,0.5,1.5,0.8l2.5-4.6c-1.4-0.9-3-1.6-4.9-2.1s-3.9-0.7-6-0.7c-1.7,0-3.3,0.2-4.6,0.6
			c-1.4,0.4-2.5,1-3.5,1.7s-1.7,1.6-2.2,2.7s-0.8,2.3-0.8,3.6c0,2.2,0.8,3.9,2.3,5.3c1.5,1.3,3.8,2.2,6.8,2.6l2.8,0.4
			c1.6,0.2,2.8,0.6,3.5,1.1s1.1,1.1,1.1,1.9c0,1-0.5,1.8-1.5,2.4s-2.6,0.9-4.6,0.9c-1.1,0-2.1-0.1-3-0.2c-0.9-0.2-1.7-0.4-2.4-0.6
			c-0.7-0.3-1.4-0.5-1.9-0.9c-0.6-0.3-1.1-0.7-1.6-1.1l-2.7,4.4c1,0.7,2,1.3,3.1,1.8s2.1,0.8,3.1,1.1c1,0.3,2,0.4,2.9,0.5
			s1.7,0.1,2.4,0.1c1.9,0,3.7-0.2,5.2-0.6s2.8-1,3.9-1.8c1-0.8,1.8-1.7,2.4-2.8c0.6-1.1,0.8-2.3,0.8-3.6
			C278.2,67.2,277.4,65.4,275.7,64.2z"/>
		<path class="st0" d="M330.7,53.9c-1.1-1.2-2.5-2.2-4-2.9c-1.6-0.7-3.3-1-5.2-1c-2,0-3.8,0.3-5.4,1s-3.1,1.6-4.2,2.9
			c-1.2,1.2-2.1,2.7-2.8,4.5c-0.7,1.7-1,3.7-1,5.8c0,2.1,0.3,4.1,1,5.8s1.6,3.2,2.8,4.5c1.2,1.2,2.7,2.2,4.4,2.9
			c1.7,0.7,3.5,1,5.6,1c2,0,4-0.3,5.8-0.8c1.8-0.6,3.6-1.5,5.2-3l-2.9-4.2c-1.1,0.9-2.4,1.6-3.7,2.1c-1.4,0.5-2.7,0.7-4.1,0.7
			c-1,0-1.9-0.1-2.8-0.4s-1.7-0.7-2.4-1.2c-0.7-0.6-1.3-1.3-1.8-2.1c-0.5-0.9-0.9-1.9-1-3.1h19.9c0-0.3,0.1-0.7,0.1-1.1s0-0.7,0-1.1
			c0-2.1-0.3-4-0.9-5.7C332.7,56.7,331.8,55.2,330.7,53.9z M314.3,61.9c0.2-1,0.4-1.9,0.8-2.7s0.9-1.5,1.4-2.1
			c0.6-0.6,1.3-1,2.1-1.4c0.8-0.3,1.7-0.5,2.8-0.5c1.9,0,3.4,0.6,4.6,1.7c1.2,1.2,1.9,2.8,2.2,4.9L314.3,61.9L314.3,61.9z"/>
		<path class="st0" d="M408.8,54c-0.9-1.2-2.1-2.2-3.5-2.9s-3-1.1-5-1.1c-1.9,0-3.7,0.4-5.3,1.1c-1.6,0.7-3.1,1.7-4.3,2.9
			c-1.2,1.3-2.2,2.8-2.9,4.5c-0.7,1.7-1,3.6-1,5.7s0.3,4,1,5.7s1.6,3.2,2.9,4.5c1.2,1.3,2.6,2.2,4.3,2.9c1.6,0.7,3.4,1.1,5.3,1.1
			s3.6-0.4,5-1.1s2.5-1.7,3.5-2.9v3.2h5.9V50.7h-5.9V54z M408.6,67.6c-0.4,1-0.9,2-1.7,2.7c-0.7,0.8-1.6,1.4-2.6,1.8
			s-2.1,0.7-3.3,0.7c-1.3,0-2.4-0.2-3.4-0.7s-1.9-1.1-2.5-1.9c-0.7-0.8-1.2-1.7-1.6-2.7s-0.6-2.2-0.6-3.3c0-1.2,0.2-2.3,0.6-3.3
			s0.9-2,1.6-2.7c0.7-0.8,1.5-1.4,2.5-1.9s2.1-0.7,3.4-0.7c1.2,0,2.3,0.2,3.3,0.7c1,0.4,1.8,1,2.6,1.8c0.7,0.8,1.3,1.7,1.7,2.7
			c0.4,1,0.6,2.2,0.6,3.4C409.2,65.4,409,66.6,408.6,67.6z"/>
		<path class="st0" d="M300.9,72.3c-0.9,0.4-1.9,0.5-2.8,0.5c-0.6,0-1.2-0.1-1.7-0.3c-0.5-0.2-1-0.5-1.3-0.9
			c-0.4-0.4-0.7-0.9-0.9-1.6s-0.3-1.4-0.3-2.3V56h9.4v-5.3h-9.4v-8.2H288v8.2h-5.4V56h5.4v11.9c0,3.6,0.8,6.2,2.5,7.9
			s4.1,2.5,7.1,2.5c1.7,0,3.2-0.3,4.6-0.8c0.9-0.3,1.7-0.7,2.5-1.2l-2-4.9C302.1,71.8,301.5,72.1,300.9,72.3z"/>
		<path class="st0" d="M354,50c-1.6,0-3.1,0.3-4.5,0.9c-1.3,0.6-2.4,2-3.3,3.3v-3.5h-5.3v27h5.4V62.9c0-1.1,0.2-2.2,0.5-3.1
			s0.8-1.7,1.3-2.3c0.6-0.6,1.2-1.1,2-1.4s1.6-0.5,2.6-0.5c0.7,0,1.5,0.1,2.3,0.3c0.4,0.1,0.8,0.2,1.2,0.3l1.7-5.6
			c-0.5-0.1-0.9-0.3-1.4-0.4C355.7,50.1,354.9,50,354,50z"/>
		<path class="st0" d="M435.6,50c-1.6,0-3.1,0.3-4.5,0.9c-1.3,0.6-2.4,2-3.3,3.3v-3.5h-5.3v27h5.4V62.9c0-1.1,0.2-2.2,0.5-3.1
			s0.8-1.7,1.3-2.3c0.6-0.6,1.2-1.1,2-1.4s1.6-0.5,2.6-0.5c0.7,0,1.5,0.1,2.3,0.3c0.4,0.1,0.8,0.2,1.2,0.3l1.7-5.6
			c-0.5-0.1-0.9-0.3-1.4-0.4C437.3,50.1,436.5,50,435.6,50z"/>
		<path class="st0" d="M463.1,39.8V54c-0.9-1.2-2.1-2.2-3.5-2.9s-3-1.1-5-1.1c-1.9,0-3.7,0.4-5.3,1.1c-1.6,0.7-3.1,1.7-4.3,2.9
			c-1.2,1.3-2.2,2.8-2.9,4.5c-0.7,1.7-1,3.6-1,5.7s0.3,4,1,5.7s1.6,3.2,2.9,4.5c1.2,1.3,2.6,2.2,4.3,2.9c1.6,0.7,3.4,1.1,5.3,1.1
			s3.6-0.4,5-1.1s2.5-1.7,3.5-2.9v3.2h5.9V39.7L463.1,39.8L463.1,39.8z M462.9,67.6c-0.4,1-0.9,2-1.7,2.7c-0.7,0.8-1.6,1.4-2.6,1.8
			s-2.1,0.7-3.3,0.7c-1.3,0-2.4-0.2-3.4-0.7s-1.9-1.1-2.5-1.9c-0.7-0.8-1.2-1.7-1.6-2.7s-0.6-2.2-0.6-3.3c0-1.2,0.2-2.3,0.6-3.3
			s0.9-2,1.6-2.7c0.7-0.8,1.5-1.4,2.5-1.9s2.1-0.7,3.4-0.7c1.2,0,2.3,0.2,3.3,0.7c1,0.4,1.8,1,2.6,1.8c0.7,0.8,1.3,1.7,1.7,2.7
			c0.4,1,0.6,2.2,0.6,3.4C463.4,65.4,463.3,66.6,462.9,67.6z"/>
		<path class="st0" d="M368,58c0.7-0.8,1.6-1.3,2.7-1.8c1-0.4,2.1-0.6,3.3-0.6l0,0c1.3,0,2.5,0.2,3.7,0.6c1.1,0.4,2,1,2.9,1.7
			l2.8-4.7c-1.1-0.8-2.3-1.5-3.6-2.1c-1.8-0.7-3.7-1.1-5.8-1.1c-2.1,0-4,0.4-5.8,1.1s-3.3,1.7-4.6,3c-1.3,1.3-2.3,2.8-3,4.5
			s-1.1,3.6-1.1,5.6c0,2,0.4,3.9,1.1,5.6s1.7,3.2,3,4.5s2.8,2.3,4.6,3s3.7,1.1,5.8,1.1c2.1,0,4-0.4,5.8-1.1c1.3-0.5,2.5-1.2,3.6-2.1
			l-2.8-4.7c-0.8,0.7-1.8,1.3-2.9,1.7s-2.4,0.6-3.7,0.6l0,0c-1.2,0-2.3-0.2-3.3-0.6s-1.9-1-2.7-1.8c-0.7-0.8-1.3-1.7-1.8-2.7
			c-0.4-1.1-0.6-2.2-0.6-3.5c0-1.3,0.2-2.4,0.6-3.5C366.7,59.6,367.3,58.7,368,58z"/>
	</g>
	<g>
		<path class="st0" d="M476.3,75.1c0.3,0,0.6,0.1,0.8,0.2c0.3,0.1,0.5,0.3,0.7,0.4c0.2,0.2,0.3,0.4,0.5,0.7c0.1,0.3,0.2,0.5,0.2,0.8
			s-0.1,0.5-0.2,0.8s-0.3,0.5-0.5,0.7s-0.4,0.3-0.7,0.4c-0.3,0.1-0.5,0.2-0.8,0.2s-0.6-0.1-0.8-0.2c-0.3-0.1-0.5-0.3-0.7-0.4
			c-0.2-0.2-0.3-0.4-0.5-0.7c-0.1-0.3-0.2-0.5-0.2-0.8s0.1-0.6,0.2-0.8c0.1-0.3,0.3-0.5,0.5-0.7s0.4-0.3,0.7-0.4
			C475.7,75.1,476,75.1,476.3,75.1z M476.3,78.6c0.2,0,0.4,0,0.6-0.1s0.3-0.2,0.5-0.3c0.1-0.1,0.2-0.3,0.3-0.5
			c0.1-0.2,0.1-0.4,0.1-0.6s0-0.4-0.1-0.6s-0.2-0.3-0.3-0.5c-0.1-0.1-0.3-0.2-0.5-0.3c-0.2-0.1-0.4-0.1-0.6-0.1s-0.4,0-0.6,0.1
			s-0.3,0.2-0.5,0.3c-0.1,0.1-0.2,0.3-0.3,0.5c-0.1,0.2-0.1,0.4-0.1,0.6s0,0.4,0.1,0.6s0.2,0.3,0.3,0.5c0.1,0.1,0.3,0.2,0.5,0.3
			C475.9,78.6,476.1,78.6,476.3,78.6z M476.4,76.2c0.3,0,0.4,0.1,0.6,0.2c0.1,0.1,0.2,0.3,0.2,0.4s0,0.3-0.1,0.4s-0.2,0.2-0.4,0.2
			l0.6,0.7h-0.6l-0.5-0.6h-0.1v0.6h-0.5v-1.8L476.4,76.2L476.4,76.2z M476,76.7V77h0.4c0.1,0,0.1,0,0.2,0l0.1-0.1
			c0-0.1,0-0.1-0.1-0.1c0,0-0.1,0-0.2,0L476,76.7L476,76.7z"/>
	</g>
	<g>
		<path class="st1" d="M64.5,64.3c0-13,6.1-24.6,15.5-32.1c-7-5.5-15.8-8.8-25.4-8.8c-22.6,0-41,18.3-41,41s18.3,41,41,41
			c9.6,0,18.4-3.3,25.4-8.8C70.6,88.9,64.5,77.3,64.5,64.3z"/>
		<ellipse class="st2" cx="80" cy="64.3" rx="15.5" ry="32.1"/>
		<path class="st3" d="M143.6,86.4v-1.2h-0.5v-0.3h1.3v0.3H144v1.2H143.6z M146.2,86.4v-1.1l-0.3,0.9h-0.4l-0.3-0.9v1.1h-0.4v-1.5
			h0.5l0.4,1l0.4-1h0.5v1.5H146.2z"/>
		<path class="st3" d="M105.4,23.3c-9.6,0-18.4,3.3-25.4,8.8c9.5,7.5,15.5,19.1,15.5,32.1S89.5,88.9,80,96.4
			c7,5.5,15.8,8.8,25.4,8.8c22.6,0,40.9-18.3,40.9-41S128,23.3,105.4,23.3z"/>
	</g>
</g>
</svg>
