<?xml version="1.0" encoding="utf-8"?>
<!-- Generator: Adobe Illustrator 23.0.1, SVG Export Plug-In . SVG Version: 6.00 Build 0)  -->
<svg version="1.1" id="레이어_1" xmlns="http://www.w3.org/2000/svg" xmlns:xlink="http://www.w3.org/1999/xlink" x="0px"
	 y="0px" viewBox="0 0 403 89" style="enable-background:new 0 0 403 89;" xml:space="preserve">
<style type="text/css">
	.st0{fill:#1C1C1B;}
</style>
<g>
	<path class="st0" d="M65.6,32.7c-1.2-1.2-2.5-2-4.1-2.7c-1.6-0.6-3.3-1-5.2-1c-1,0-2,0.1-3.1,0.3c-1.1,0.2-2.1,0.5-3.2,0.9
		c-1,0.4-2,1-2.9,1.8c-0.9,0.8-1.7,1.7-2.4,2.9c-1.1-1.8-2.6-3.3-4.5-4.3S36.1,29,33.7,29c-0.8,0-1.7,0.1-2.5,0.2
		c-0.9,0.1-1.7,0.4-2.6,0.8c-0.9,0.4-1.7,0.9-2.5,1.5c-0.8,0.6-1.5,1.4-2.1,2.4v-4H17v32.9h7V44.5c0-1.4,0.2-2.6,0.7-3.7
		s1-2,1.8-2.7s1.6-1.3,2.6-1.7c1-0.4,2.1-0.6,3.2-0.6c2.3,0,4.2,0.7,5.5,2.2c1.3,1.5,1.9,3.6,1.9,6.4v18.3h7V44.5
		c0-1.4,0.2-2.6,0.7-3.7s1-2,1.8-2.7c0.7-0.7,1.6-1.3,2.6-1.7c1-0.4,2.1-0.6,3.2-0.6c2.3,0,4.2,0.7,5.5,2.2c1.3,1.5,1.9,3.6,1.9,6.4
		v18.3h7V42.1c0-1.9-0.3-3.7-0.9-5.3C67.7,35.2,66.8,33.8,65.6,32.7z"/>
	<path class="st0" d="M102.4,33.8c-1.1-1.5-2.6-2.6-4.3-3.5c-1.7-0.9-3.7-1.3-6.1-1.3c-2.3,0-4.5,0.4-6.4,1.3s-3.7,2-5.2,3.6
		c-1.5,1.5-2.7,3.4-3.5,5.5c-0.8,2.1-1.3,4.4-1.3,7s0.4,4.8,1.3,7c0.8,2.1,2,3.9,3.5,5.5c1.5,1.5,3.2,2.7,5.2,3.6s4.1,1.3,6.4,1.3
		c2.4,0,4.4-0.4,6.1-1.3c1.7-0.9,3.1-2,4.3-3.5v4h7.2V29.9h-7.2V33.8z M102.1,50.5c-0.5,1.3-1.2,2.4-2,3.3c-0.9,0.9-1.9,1.7-3.1,2.2
		c-1.2,0.5-2.6,0.8-4.1,0.8c-1.6,0-2.9-0.3-4.2-0.8s-2.3-1.3-3.1-2.3s-1.5-2.1-2-3.3S83,47.8,83,46.3c0-1.4,0.2-2.8,0.7-4.1
		c0.5-1.3,1.1-2.4,2-3.3c0.8-1,1.9-1.7,3.1-2.3c1.2-0.6,2.6-0.8,4.2-0.8c1.5,0,2.8,0.3,4.1,0.8c1.2,0.5,2.3,1.3,3.1,2.2
		c0.9,0.9,1.6,2,2,3.3c0.5,1.3,0.7,2.7,0.7,4.2S102.6,49.2,102.1,50.5z"/>
	<path class="st0" d="M142.6,46.3c-2-1.6-4.8-2.6-8.4-3.1l-3.4-0.5c-0.8-0.1-1.5-0.3-2.1-0.4c-0.7-0.2-1.2-0.3-1.7-0.6
		s-0.9-0.6-1.2-1s-0.4-0.9-0.4-1.4c0-1.2,0.5-2.1,1.6-2.8c1.1-0.7,2.6-1.1,4.6-1.1c1,0,2,0.1,3,0.3s1.9,0.4,2.8,0.7
		c0.9,0.3,1.7,0.6,2.4,0.9c0.7,0.3,1.4,0.7,1.9,0.9l3.1-5.6c-1.7-1.1-3.7-2-6-2.6c-2.3-0.6-4.7-0.9-7.3-0.9c-2.1,0-4,0.3-5.7,0.7
		c-1.7,0.5-3.1,1.2-4.3,2.1c-1.2,0.9-2.1,2-2.7,3.3c-0.6,1.3-0.9,2.8-0.9,4.4c0,2.7,0.9,4.8,2.8,6.4s4.7,2.7,8.3,3.2l3.4,0.5
		c2,0.3,3.4,0.7,4.3,1.3c0.9,0.6,1.4,1.4,1.4,2.3c0,1.2-0.6,2.2-1.9,2.9c-1.3,0.7-3.1,1.1-5.6,1.1c-1.4,0-2.6-0.1-3.6-0.3
		c-1.1-0.2-2-0.4-2.9-0.7s-1.7-0.7-2.4-1.1c-0.7-0.4-1.3-0.8-1.9-1.3l-3.3,5.4c1.2,0.9,2.4,1.6,3.7,2.2s2.6,1,3.8,1.3
		s2.4,0.5,3.6,0.6s2.1,0.2,3,0.2c2.4,0,4.5-0.3,6.3-0.8c1.9-0.5,3.4-1.3,4.7-2.2c1.3-1,2.2-2.1,2.9-3.4c0.7-1.3,1-2.8,1-4.3
		C145.6,50,144.6,47.8,142.6,46.3z"/>
	<path class="st0" d="M209.8,33.8c-1.4-1.5-3-2.7-4.9-3.5s-4-1.3-6.3-1.3c-2.4,0-4.6,0.4-6.6,1.3c-2,0.8-3.7,2-5.2,3.5
		c-1.4,1.5-2.6,3.3-3.4,5.5c-0.8,2.1-1.2,4.5-1.2,7c0,2.6,0.4,5,1.2,7.1c0.8,2.1,2,4,3.5,5.5s3.3,2.7,5.3,3.5
		c2.1,0.8,4.3,1.2,6.8,1.2c2.5,0,4.9-0.3,7.1-1s4.4-1.9,6.4-3.6l-3.6-5.1c-1.4,1.1-2.9,2-4.6,2.6s-3.3,0.9-5,0.9
		c-1.2,0-2.3-0.2-3.4-0.5c-1.1-0.3-2.1-0.8-2.9-1.5c-0.9-0.7-1.6-1.5-2.2-2.6s-1-2.3-1.3-3.8H214c0.1-0.4,0.1-0.8,0.1-1.3
		c0-0.5,0-0.9,0-1.4c0-2.6-0.4-4.9-1.1-7C212.2,37.1,211.1,35.3,209.8,33.8z M189.7,43.5c0.2-1.2,0.5-2.3,1-3.3s1.1-1.8,1.8-2.6
		s1.6-1.3,2.6-1.7c1-0.4,2.1-0.6,3.4-0.6c2.3,0,4.1,0.7,5.6,2.1c1.4,1.4,2.4,3.4,2.8,6C206.8,43.5,189.7,43.5,189.7,43.5z"/>
	<path class="st0" d="M305.1,33.8c-1.1-1.5-2.6-2.6-4.3-3.5c-1.7-0.9-3.7-1.3-6.1-1.3c-2.3,0-4.5,0.4-6.5,1.3c-2,0.9-3.7,2-5.2,3.6
		c-1.5,1.5-2.7,3.4-3.5,5.5c-0.9,2.1-1.3,4.4-1.3,7s0.4,4.8,1.3,7c0.9,2.1,2,3.9,3.5,5.5c1.5,1.5,3.2,2.7,5.2,3.6s4.1,1.3,6.5,1.3
		c2.4,0,4.4-0.4,6.1-1.3c1.7-0.9,3.1-2,4.3-3.5v4h7.2V29.9h-7.2V33.8z M304.8,50.5c-0.5,1.3-1.2,2.4-2,3.3c-0.9,0.9-1.9,1.7-3.1,2.2
		c-1.2,0.5-2.6,0.8-4,0.8c-1.6,0-3-0.3-4.2-0.8s-2.3-1.3-3.1-2.3s-1.5-2.1-2-3.3s-0.7-2.6-0.7-4.1c0-1.4,0.2-2.8,0.7-4.1
		c0.5-1.3,1.1-2.4,2-3.3c0.9-1,1.9-1.7,3.1-2.3c1.2-0.6,2.6-0.8,4.2-0.8c1.5,0,2.8,0.3,4,0.8s2.3,1.3,3.1,2.2c0.9,0.9,1.5,2,2,3.3
		c0.5,1.3,0.7,2.7,0.7,4.2S305.3,49.2,304.8,50.5z"/>
	<path class="st0" d="M173.3,56.2c-1.2,0.4-2.3,0.7-3.4,0.7c-0.7,0-1.4-0.1-2-0.3c-0.6-0.2-1.2-0.6-1.6-1.1s-0.8-1.1-1.1-1.9
		c-0.3-0.8-0.4-1.7-0.4-2.8V36.4h11.5v-6.5h-11.5v-10h-7.2v10h-6.6v6.5h6.6v14.5c0,4.4,1,7.6,3.1,9.7c2.1,2.1,5,3.1,8.7,3.1
		c2.1,0,3.9-0.3,5.6-1c1.1-0.4,2.1-0.9,3.1-1.4l-2.4-6C174.8,55.6,174.1,55.9,173.3,56.2z"/>
	<path class="st0" d="M238.1,29c-2,0-3.8,0.4-5.5,1.1s-3,2.5-4.1,4.1v-4.3h-6.5v32.9h6.6V44.7c0-1.4,0.2-2.6,0.6-3.7
		c0.4-1.1,0.9-2,1.6-2.8c0.7-0.8,1.5-1.3,2.5-1.7s2-0.6,3.2-0.6c0.9,0,1.8,0.1,2.8,0.3c0.5,0.1,1,0.2,1.4,0.4l2.1-6.9
		c-0.6-0.2-1.2-0.3-1.8-0.4C240.2,29.1,239.2,29,238.1,29z"/>
	<path class="st0" d="M337.9,29c-2,0-3.8,0.4-5.5,1.1s-3,2.5-4.1,4.1v-4.3h-6.5v32.9h6.6V44.7c0-1.4,0.2-2.6,0.6-3.7
		c0.4-1.1,0.9-2,1.6-2.8c0.7-0.8,1.5-1.3,2.5-1.7s2-0.6,3.2-0.6c0.9,0,1.8,0.1,2.8,0.3c0.5,0.1,1,0.2,1.4,0.4l2.1-6.9
		c-0.6-0.2-1.2-0.3-1.8-0.4C340,29.1,339,29,337.9,29z"/>
	<path class="st0" d="M371.4,16.5v17.3c-1.1-1.5-2.6-2.6-4.3-3.5c-1.7-0.9-3.7-1.3-6.1-1.3c-2.3,0-4.5,0.4-6.5,1.3
		c-2,0.9-3.7,2-5.2,3.6c-1.5,1.5-2.7,3.4-3.5,5.5c-0.9,2.1-1.3,4.4-1.3,7s0.4,4.8,1.3,7c0.9,2.1,2,3.9,3.5,5.5
		c1.5,1.5,3.2,2.7,5.2,3.6s4.1,1.3,6.5,1.3c2.4,0,4.4-0.4,6.1-1.3c1.7-0.9,3.1-2,4.3-3.5v4h7.2V16.5H371.4z M371.1,50.5
		c-0.5,1.3-1.2,2.4-2,3.3c-0.9,0.9-1.9,1.7-3.1,2.2c-1.2,0.5-2.6,0.8-4,0.8c-1.6,0-3-0.3-4.2-0.8c-1.2-0.6-2.3-1.3-3.1-2.3
		c-0.9-1-1.5-2.1-2-3.3s-0.7-2.6-0.7-4.1c0-1.4,0.2-2.8,0.7-4.1c0.5-1.3,1.1-2.4,2-3.3c0.9-1,1.9-1.7,3.1-2.3
		c1.2-0.6,2.6-0.8,4.2-0.8c1.5,0,2.8,0.3,4,0.8s2.3,1.3,3.1,2.2c0.9,0.9,1.5,2,2,3.3c0.5,1.3,0.7,2.7,0.7,4.2S371.6,49.2,371.1,50.5
		z"/>
	<path class="st0" d="M255.3,38.7c0.9-0.9,2-1.7,3.3-2.2s2.6-0.8,4.1-0.8l0,0c1.6,0,3.1,0.3,4.5,0.8c1.3,0.5,2.5,1.2,3.5,2.1
		l3.5-5.8c-1.3-1-2.8-1.9-4.4-2.5c-2.2-0.9-4.5-1.3-7.1-1.3s-4.9,0.4-7.1,1.3c-2.2,0.9-4,2.1-5.6,3.6s-2.8,3.4-3.7,5.5
		s-1.3,4.4-1.3,6.9c0,2.5,0.4,4.8,1.3,6.9c0.9,2.1,2.1,3.9,3.7,5.5s3.4,2.8,5.6,3.6c2.2,0.9,4.5,1.3,7.1,1.3s4.9-0.4,7.1-1.3
		c1.6-0.7,3.1-1.5,4.4-2.5l-3.5-5.8c-1,0.9-2.1,1.6-3.5,2.1c-1.4,0.5-2.9,0.8-4.5,0.8l0,0c-1.5,0-2.8-0.3-4.1-0.8
		c-1.3-0.5-2.4-1.2-3.3-2.2c-0.9-0.9-1.6-2-2.2-3.3c-0.5-1.3-0.8-2.7-0.8-4.3c0-1.6,0.3-3,0.8-4.3C253.7,40.8,254.4,39.6,255.3,38.7
		z"/>
</g>
<g>
	<path class="st0" d="M387.5,59.6c0.4,0,0.7,0.1,1,0.2s0.6,0.3,0.8,0.5s0.4,0.5,0.5,0.8c0.1,0.3,0.2,0.6,0.2,1c0,0.3-0.1,0.7-0.2,1
		s-0.3,0.6-0.5,0.8c-0.2,0.2-0.5,0.4-0.8,0.5c-0.3,0.1-0.6,0.2-1,0.2c-0.4,0-0.7-0.1-1-0.2s-0.6-0.3-0.8-0.5
		c-0.2-0.2-0.4-0.5-0.5-0.8c-0.1-0.3-0.2-0.6-0.2-1s0.1-0.7,0.2-1c0.1-0.3,0.3-0.6,0.5-0.8c0.2-0.2,0.5-0.4,0.8-0.5
		C386.8,59.7,387.2,59.6,387.5,59.6z M387.5,64c0.3,0,0.5,0,0.7-0.1s0.4-0.2,0.6-0.4c0.2-0.2,0.3-0.4,0.4-0.6
		c0.1-0.2,0.1-0.5,0.1-0.7s0-0.5-0.1-0.7c-0.1-0.2-0.2-0.4-0.4-0.6c-0.2-0.2-0.4-0.3-0.6-0.4s-0.5-0.1-0.7-0.1c-0.3,0-0.5,0-0.7,0.1
		c-0.2,0.1-0.4,0.2-0.6,0.4c-0.2,0.2-0.3,0.4-0.4,0.6c-0.1,0.2-0.1,0.5-0.1,0.7s0,0.5,0.1,0.7c0.1,0.2,0.2,0.4,0.4,0.6
		c0.2,0.2,0.4,0.3,0.6,0.4C387,63.9,387.3,64,387.5,64z M387.7,61c0.3,0,0.5,0.1,0.7,0.2s0.2,0.3,0.2,0.5c0,0.2-0.1,0.3-0.2,0.5
		c-0.1,0.1-0.3,0.2-0.5,0.2l0.7,0.8h-0.8l-0.6-0.8h-0.1v0.8h-0.6V61C386.6,61,387.7,61,387.7,61z M387.2,61.5V62h0.5
		c0.1,0,0.2,0,0.2,0c0,0,0.1-0.1,0.1-0.2c0-0.1,0-0.1-0.1-0.2c0,0-0.1,0-0.2,0L387.2,61.5L387.2,61.5z"/>
</g>
</svg>
