<?xml version="1.0" encoding="utf-8"?>
<!-- Generator: Adobe Illustrator 24.1.2, SVG Export Plug-In . SVG Version: 6.00 Build 0)  -->
<svg version="1.1" id="Layer_1" xmlns="http://www.w3.org/2000/svg" xmlns:xlink="http://www.w3.org/1999/xlink" x="0px" y="0px"
	 viewBox="0 0 370 300" style="enable-background:new 0 0 370 300;" xml:space="preserve">
<style type="text/css">
	.st0{fill:#FFFFFF;}
	.st1{fill:#E20C16;}
	.st2{fill:#EA6008;}
	.st3{fill:#F59E00;}
</style>
<g>
	<path class="st0" d="M75.3,253.7c-1-1-2.1-1.7-3.4-2.2s-2.8-0.8-4.3-0.8c-0.8,0-1.7,0.1-2.6,0.2c-0.9,0.1-1.8,0.4-2.6,0.8
		c-0.9,0.4-1.7,0.9-2.4,1.5c-0.8,0.6-1.4,1.4-2,2.4c-0.9-1.5-2.2-2.7-3.7-3.6c-1.6-0.9-3.4-1.3-5.4-1.3c-0.7,0-1.4,0.1-2.1,0.2
		c-0.7,0.1-1.4,0.3-2.2,0.6c-0.7,0.3-1.4,0.7-2.1,1.2c-0.7,0.5-1.2,1.2-1.8,2v-3.3H35v27.3h5.8v-15.1c0-1.2,0.2-2.2,0.6-3.1
		c0.4-0.9,0.9-1.7,1.5-2.3c0.6-0.6,1.3-1.1,2.2-1.4c0.8-0.3,1.7-0.5,2.6-0.5c1.9,0,3.5,0.6,4.5,1.9c1.1,1.2,1.6,3,1.6,5.3v15.2h5.8
		v-15.1c0-1.2,0.2-2.2,0.6-3.1c0.4-0.9,0.9-1.7,1.5-2.3c0.6-0.6,1.3-1.1,2.2-1.4c0.8-0.3,1.7-0.5,2.6-0.5c1.9,0,3.5,0.6,4.5,1.9
		c1.1,1.2,1.6,3,1.6,5.3v15.2h5.8v-17.1c0-1.6-0.3-3.1-0.8-4.4C77,255.8,76.2,254.7,75.3,253.7z"/>
	<path class="st0" d="M105.8,254.7c-0.9-1.2-2.1-2.2-3.5-2.9s-3.1-1.1-5-1.1s-3.7,0.4-5.4,1.1c-1.7,0.7-3.1,1.7-4.3,3
		c-1.2,1.3-2.2,2.8-2.9,4.5c-0.7,1.8-1.1,3.7-1.1,5.8c0,2.1,0.4,4,1.1,5.8s1.7,3.3,2.9,4.5c1.2,1.3,2.7,2.3,4.3,3
		c1.7,0.7,3.4,1.1,5.4,1.1s3.6-0.4,5-1.1s2.6-1.7,3.5-2.9v3.3h6v-27.3h-6V254.7z M105.6,268.5c-0.4,1.1-1,2-1.7,2.8
		s-1.6,1.4-2.6,1.8s-2.1,0.7-3.4,0.7s-2.4-0.2-3.5-0.7c-1-0.5-1.9-1.1-2.6-1.9s-1.2-1.7-1.6-2.8c-0.4-1.1-0.6-2.2-0.6-3.4
		c0-1.2,0.2-2.3,0.6-3.4s0.9-2,1.6-2.8s1.6-1.4,2.6-1.9s2.2-0.7,3.5-0.7c1.2,0,2.4,0.2,3.4,0.7c1,0.4,1.9,1.1,2.6,1.8
		c0.7,0.8,1.3,1.7,1.7,2.8c0.4,1.1,0.6,2.2,0.6,3.5S106,267.5,105.6,268.5z"/>
	<path class="st0" d="M139.1,265c-1.7-1.3-4-2.2-7-2.6l-2.8-0.4c-0.6-0.1-1.2-0.2-1.8-0.3c-0.6-0.1-1-0.3-1.4-0.5s-0.7-0.5-1-0.8
		c-0.2-0.3-0.4-0.7-0.4-1.2c0-1,0.5-1.8,1.4-2.4s2.2-0.9,3.8-0.9c0.9,0,1.7,0.1,2.5,0.2c0.8,0.2,1.6,0.3,2.4,0.6
		c0.7,0.2,1.4,0.5,2,0.8s1.1,0.5,1.5,0.8l2.6-4.6c-1.4-0.9-3.1-1.6-5-2.1s-3.9-0.8-6.1-0.8c-1.7,0-3.3,0.2-4.7,0.6
		c-1.4,0.4-2.6,1-3.5,1.7c-1,0.8-1.7,1.7-2.3,2.7c-0.5,1.1-0.8,2.3-0.8,3.6c0,2.2,0.8,4,2.3,5.3c1.6,1.4,3.9,2.2,6.9,2.7l2.8,0.4
		c1.6,0.2,2.8,0.6,3.6,1.1s1.1,1.1,1.1,1.9c0,1-0.5,1.8-1.6,2.4c-1,0.6-2.6,0.9-4.6,0.9c-1.1,0-2.1-0.1-3-0.2
		c-0.9-0.2-1.7-0.4-2.4-0.6c-0.7-0.3-1.4-0.6-2-0.9s-1.1-0.7-1.6-1.1l-2.8,4.5c1,0.7,2,1.3,3.1,1.8s2.1,0.8,3.2,1.1
		c1,0.3,2,0.4,3,0.5c0.9,0.1,1.7,0.1,2.5,0.1c2,0,3.7-0.2,5.3-0.7c1.5-0.4,2.8-1,3.9-1.8c1.1-0.8,1.9-1.7,2.4-2.8
		c0.6-1.1,0.8-2.3,0.8-3.6C141.6,268.1,140.8,266.3,139.1,265z"/>
	<path class="st0" d="M194.9,254.7c-1.1-1.3-2.5-2.2-4.1-2.9s-3.3-1-5.2-1c-2,0-3.9,0.3-5.5,1c-1.7,0.7-3.1,1.7-4.3,2.9
		c-1.2,1.3-2.1,2.8-2.8,4.5c-0.7,1.8-1,3.7-1,5.8c0,2.2,0.3,4.1,1,5.9s1.6,3.3,2.9,4.5c1.2,1.3,2.7,2.2,4.4,2.9c1.7,0.7,3.6,1,5.6,1
		c2.1,0,4-0.3,5.9-0.9s3.6-1.6,5.3-3l-3-4.2c-1.1,0.9-2.4,1.6-3.8,2.1c-1.4,0.5-2.7,0.8-4.1,0.8c-1,0-1.9-0.1-2.8-0.4
		c-0.9-0.3-1.7-0.7-2.4-1.2c-0.7-0.6-1.3-1.3-1.9-2.2c-0.5-0.9-0.9-1.9-1.1-3.2h20.2c0-0.3,0.1-0.7,0.1-1.1s0-0.8,0-1.1
		c0-2.1-0.3-4.1-1-5.8C196.9,257.5,196,255.9,194.9,254.7z M178.2,262.7c0.2-1,0.4-1.9,0.8-2.7c0.4-0.8,0.9-1.5,1.5-2.1
		s1.3-1.1,2.1-1.4s1.8-0.5,2.8-0.5c1.9,0,3.4,0.6,4.6,1.8c1.2,1.2,2,2.8,2.3,5L178.2,262.7L178.2,262.7z"/>
	<path class="st0" d="M274,254.7c-0.9-1.2-2.1-2.2-3.5-2.9s-3.1-1.1-5-1.1s-3.7,0.4-5.4,1.1c-1.7,0.7-3.1,1.7-4.3,3
		s-2.2,2.8-2.9,4.5c-0.7,1.8-1.1,3.7-1.1,5.8c0,2.1,0.4,4,1.1,5.8c0.7,1.8,1.7,3.3,2.9,4.5c1.2,1.3,2.7,2.3,4.3,3
		c1.7,0.7,3.4,1.1,5.4,1.1s3.6-0.4,5-1.1s2.6-1.7,3.5-2.9v3.3h6v-27.3h-6V254.7z M273.8,268.5c-0.4,1.1-1,2-1.7,2.8
		s-1.6,1.4-2.6,1.8s-2.1,0.7-3.4,0.7s-2.4-0.2-3.5-0.7s-1.9-1.1-2.6-1.9s-1.2-1.7-1.6-2.8c-0.4-1.1-0.6-2.2-0.6-3.4
		c0-1.2,0.2-2.3,0.6-3.4s0.9-2,1.6-2.8s1.6-1.4,2.6-1.9s2.2-0.7,3.5-0.7c1.2,0,2.4,0.2,3.4,0.7c1,0.4,1.9,1.1,2.6,1.8
		c0.7,0.8,1.3,1.7,1.7,2.8c0.4,1.1,0.6,2.2,0.6,3.5S274.2,267.5,273.8,268.5z"/>
	<path class="st0" d="M164.7,273.3c-1,0.4-1.9,0.5-2.8,0.5c-0.6,0-1.2-0.1-1.7-0.3c-0.5-0.2-1-0.5-1.4-0.9s-0.7-0.9-0.9-1.6
		c-0.2-0.6-0.3-1.4-0.3-2.3v-11.9h9.6v-5.4h-9.6v-8.3h-6v8.3h-5.4v5.4h5.4v12c0,3.6,0.9,6.3,2.6,8c1.7,1.7,4.1,2.6,7.2,2.6
		c1.7,0,3.3-0.3,4.7-0.8c0.9-0.4,1.8-0.8,2.5-1.2l-2-5C165.9,272.7,165.3,273,164.7,273.3z"/>
	<path class="st0" d="M218.4,250.7c-1.7,0-3.2,0.3-4.5,0.9c-1.3,0.6-2.5,2.1-3.4,3.4v-3.6h-5.4v27.3h5.5v-15c0-1.2,0.2-2.2,0.5-3.1
		s0.8-1.7,1.3-2.3c0.6-0.6,1.3-1.1,2.1-1.4s1.7-0.5,2.6-0.5c0.7,0,1.5,0.1,2.3,0.3c0.4,0.1,0.8,0.2,1.2,0.3l1.8-5.7
		c-0.5-0.2-1-0.3-1.5-0.4C220.1,250.8,219.3,250.7,218.4,250.7z"/>
	<path class="st0" d="M301.2,250.7c-1.7,0-3.2,0.3-4.5,0.9c-1.3,0.6-2.5,2.1-3.4,3.4v-3.6h-5.4v27.3h5.5v-15c0-1.2,0.2-2.2,0.5-3.1
		s0.8-1.7,1.3-2.3c0.6-0.6,1.3-1.1,2.1-1.4c0.8-0.3,1.7-0.5,2.6-0.5c0.7,0,1.5,0.1,2.3,0.3c0.4,0.1,0.8,0.2,1.2,0.3l1.8-5.7
		c-0.5-0.2-1-0.3-1.5-0.4C302.9,250.8,302.1,250.7,301.2,250.7z"/>
	<path class="st0" d="M329,240.3v14.4c-0.9-1.2-2.1-2.2-3.5-2.9s-3.1-1.1-5-1.1s-3.7,0.4-5.4,1.1c-1.7,0.7-3.1,1.7-4.3,3
		c-1.2,1.3-2.2,2.8-2.9,4.5c-0.7,1.8-1.1,3.7-1.1,5.8c0,2.1,0.4,4,1.1,5.8s1.7,3.3,2.9,4.5c1.2,1.3,2.7,2.3,4.3,3
		c1.7,0.7,3.4,1.1,5.4,1.1s3.6-0.4,5-1.1s2.6-1.7,3.5-2.9v3.3h6v-38.4L329,240.3L329,240.3z M328.8,268.5c-0.4,1.1-1,2-1.7,2.8
		s-1.6,1.4-2.6,1.8s-2.1,0.7-3.4,0.7s-2.4-0.2-3.5-0.7c-1-0.5-1.9-1.1-2.6-1.9s-1.2-1.7-1.6-2.8c-0.4-1.1-0.6-2.2-0.6-3.4
		c0-1.2,0.2-2.3,0.6-3.4s0.9-2,1.6-2.8s1.6-1.4,2.6-1.9s2.2-0.7,3.5-0.7c1.2,0,2.4,0.2,3.4,0.7c1,0.4,1.9,1.1,2.6,1.8
		c0.7,0.8,1.3,1.7,1.7,2.8c0.4,1.1,0.6,2.2,0.6,3.5S329.2,267.5,328.8,268.5z"/>
	<path class="st0" d="M232.7,258.8c0.8-0.8,1.7-1.4,2.7-1.8s2.2-0.6,3.4-0.6l0,0c1.3,0,2.6,0.2,3.7,0.6c1.1,0.4,2.1,1,2.9,1.7
		l2.9-4.8c-1.1-0.9-2.3-1.6-3.6-2.1c-1.8-0.7-3.7-1.1-5.9-1.1c-2.1,0-4.1,0.4-5.9,1.1c-1.8,0.7-3.3,1.7-4.6,3s-2.3,2.8-3.1,4.5
		c-0.7,1.7-1.1,3.6-1.1,5.7s0.4,4,1.1,5.7c0.7,1.7,1.8,3.3,3.1,4.5c1.3,1.3,2.8,2.3,4.6,3s3.7,1.1,5.9,1.1c2.1,0,4.1-0.4,5.9-1.1
		c1.3-0.5,2.6-1.3,3.6-2.1l-2.9-4.8c-0.8,0.7-1.8,1.3-2.9,1.7c-1.1,0.4-2.4,0.6-3.7,0.6l0,0c-1.2,0-2.3-0.2-3.4-0.6
		c-1-0.4-1.9-1-2.7-1.8s-1.4-1.7-1.8-2.8c-0.4-1.1-0.7-2.3-0.7-3.5c0-1.3,0.2-2.5,0.7-3.5C231.3,260.4,231.9,259.5,232.7,258.8z"/>
</g>
<g>
	<path class="st0" d="M347.5,274.7c0.4,0,0.8,0.1,1.1,0.2c0.3,0.1,0.6,0.3,0.9,0.6c0.3,0.3,0.5,0.5,0.6,0.9c0.1,0.3,0.2,0.7,0.2,1.1
		s-0.1,0.7-0.2,1.1c-0.1,0.3-0.4,0.6-0.6,0.9c-0.3,0.3-0.6,0.5-0.9,0.6s-0.7,0.2-1.1,0.2s-0.8-0.1-1.1-0.2c-0.4-0.1-0.7-0.3-0.9-0.6
		c-0.3-0.3-0.5-0.6-0.6-0.9s-0.2-0.7-0.2-1.1s0.1-0.7,0.2-1.1c0.1-0.3,0.3-0.6,0.6-0.9c0.3-0.3,0.6-0.5,0.9-0.6
		C346.7,274.8,347.1,274.7,347.5,274.7z M347.5,279.5c0.3,0,0.5-0.1,0.8-0.2c0.2-0.1,0.5-0.2,0.6-0.4c0.2-0.2,0.3-0.4,0.4-0.6
		s0.2-0.5,0.2-0.8s-0.1-0.5-0.2-0.8c-0.1-0.2-0.2-0.5-0.4-0.6c-0.2-0.2-0.4-0.3-0.6-0.4s-0.5-0.2-0.8-0.2s-0.6,0.1-0.8,0.2
		c-0.2,0.1-0.5,0.2-0.6,0.4c-0.2,0.2-0.3,0.4-0.4,0.6s-0.2,0.5-0.2,0.8s0.1,0.5,0.2,0.8c0.1,0.2,0.2,0.5,0.4,0.6
		c0.2,0.2,0.4,0.3,0.6,0.4C346.9,279.5,347.2,279.5,347.5,279.5z M347.6,276.3c0.3,0,0.6,0.1,0.8,0.2c0.2,0.2,0.3,0.4,0.3,0.6
		s-0.1,0.4-0.2,0.5s-0.3,0.2-0.5,0.3l0.8,0.9H348l-0.7-0.9h-0.1v0.9h-0.7v-2.5H347.6z M347.1,276.9v0.5h0.5c0.1,0,0.2,0,0.2,0
		c0.1,0,0.1-0.1,0.1-0.2s0-0.1-0.1-0.2c-0.1,0-0.1-0.1-0.2-0.1L347.1,276.9L347.1,276.9z"/>
</g>
<g>
	<path class="st1" d="M145.8,123.7c0-32.7,15.3-61.8,39-80.6C167.3,29.3,145.2,21,121.1,21C64.3,21,18.3,67,18.3,123.7
		s46,102.8,102.8,102.8c24.1,0,46.2-8.3,63.7-22.2C161.1,185.5,145.8,156.4,145.8,123.7z"/>
	<ellipse class="st2" cx="184.8" cy="123.7" rx="39" ry="80.6"/>
	<path class="st3" d="M344.4,179.3v-3h-1.2v-0.8h3.3v0.8h-1.2v3H344.4z M350.8,179.3v-2.7l-0.9,2.3h-1l-0.9-2.3v2.7h-0.9v-3.8h1.3
		l1,2.5l0.9-2.5h1.3v3.8H350.8z"/>
	<path class="st3" d="M248.6,21c-24.1,0-46.2,8.3-63.7,22.2c23.8,18.8,39,47.9,39,80.6s-15.3,61.8-39,80.6
		c17.5,13.9,39.7,22.2,63.7,22.2c56.8,0,102.8-46,102.8-102.8S305.3,21,248.6,21z"/>
</g>
</svg>
