<?xml version="1.0" encoding="utf-8"?>
<!-- Generator: Adobe Illustrator 24.1.2, SVG Export Plug-In . SVG Version: 6.00 Build 0)  -->
<svg version="1.1" id="레이어_1" xmlns="http://www.w3.org/2000/svg" xmlns:xlink="http://www.w3.org/1999/xlink" x="0px"
	 y="0px" viewBox="0 0 130 500" style="enable-background:new 0 0 130 500;" xml:space="preserve">
<style type="text/css">
	.st0{fill:#FFFFFF;}
	.st1{fill:#F59E00;}
	.st2{fill:#E20C16;}
	.st3{fill:#EA6008;}
</style>
<g>
	<g>
		<path class="st0" d="M72.3,215.3c0.9-0.9,1.7-2.1,2.2-3.4c0.5-1.3,0.8-2.7,0.8-4.3c0-0.8-0.1-1.7-0.2-2.5
			c-0.1-0.9-0.4-1.7-0.7-2.6c-0.4-0.8-0.8-1.6-1.5-2.4c-0.6-0.8-1.4-1.4-2.4-2c1.5-0.9,2.7-2.1,3.5-3.7c0.9-1.6,1.3-3.3,1.3-5.3
			c0-0.7-0.1-1.4-0.2-2.1c-0.1-0.7-0.3-1.4-0.6-2.1c-0.3-0.7-0.7-1.4-1.2-2s-1.2-1.2-2-1.8h3.3v-5.7h-27v5.7h14.9
			c1.1,0,2.2,0.2,3.1,0.5c0.9,0.4,1.6,0.8,2.2,1.5c0.6,0.6,1.1,1.3,1.4,2.1s0.5,1.7,0.5,2.6c0,1.9-0.6,3.4-1.8,4.5
			c-1.2,1.1-3,1.6-5.2,1.6h-15v5.7h14.9c1.1,0,2.2,0.2,3.1,0.5c0.9,0.4,1.6,0.8,2.2,1.5c0.6,0.6,1.1,1.3,1.4,2.1s0.5,1.7,0.5,2.6
			c0,1.9-0.6,3.4-1.8,4.5c-1.2,1.1-3,1.6-5.2,1.6h-15v5.7h16.9c1.6,0,3-0.3,4.3-0.8C70.2,217,71.3,216.2,72.3,215.3z"/>
		<path class="st0" d="M71.3,245.4c1.2-0.9,2.2-2.1,2.9-3.5c0.7-1.4,1.1-3,1.1-5c0-1.9-0.4-3.7-1.1-5.3s-1.7-3.1-2.9-4.3
			c-1.3-1.2-2.8-2.2-4.5-2.9s-3.6-1-5.7-1c-2.1,0-4,0.3-5.7,1s-3.2,1.6-4.5,2.9c-1.3,1.2-2.2,2.6-2.9,4.3c-0.7,1.6-1.1,3.4-1.1,5.3
			c0,1.9,0.4,3.6,1.1,5c0.7,1.4,1.7,2.5,2.9,3.5h-3.2v5.9h26.9v-5.9H71.3z M57.7,245.2c-1-0.4-2-0.9-2.7-1.7
			c-0.8-0.7-1.4-1.6-1.8-2.6c-0.4-1-0.7-2.1-0.7-3.3c0-1.3,0.2-2.4,0.7-3.4s1.1-1.9,1.9-2.5c0.8-0.7,1.7-1.2,2.7-1.6
			c1-0.4,2.2-0.6,3.3-0.6c1.2,0,2.3,0.2,3.3,0.6c1,0.4,2,0.9,2.7,1.6c0.8,0.7,1.4,1.5,1.9,2.5s0.7,2.1,0.7,3.4
			c0,1.2-0.2,2.3-0.7,3.3c-0.4,1-1,1.8-1.8,2.6c-0.8,0.7-1.7,1.3-2.7,1.7s-2.2,0.6-3.4,0.6C59.9,245.8,58.7,245.6,57.7,245.2z"/>
		<path class="st0" d="M61.1,278.3c1.3-1.6,2.1-3.9,2.6-6.9l0.4-2.8c0.1-0.6,0.2-1.2,0.3-1.7c0.1-0.5,0.3-1,0.5-1.4s0.5-0.7,0.8-0.9
			c0.3-0.2,0.7-0.4,1.2-0.4c1,0,1.7,0.4,2.3,1.3c0.6,0.9,0.9,2.1,0.9,3.8c0,0.8-0.1,1.7-0.2,2.5c-0.2,0.8-0.3,1.6-0.6,2.3
			c-0.2,0.7-0.5,1.4-0.7,2c-0.3,0.6-0.5,1.1-0.8,1.5l4.6,2.5c0.9-1.4,1.6-3,2.1-4.9s0.7-3.9,0.7-6c0-1.7-0.2-3.3-0.6-4.6
			c-0.4-1.4-1-2.5-1.7-3.5s-1.6-1.7-2.7-2.2s-2.3-0.8-3.6-0.8c-2.2,0-3.9,0.8-5.3,2.3c-1.3,1.5-2.2,3.8-2.6,6.8l-0.4,2.8
			c-0.2,1.6-0.6,2.8-1.1,3.5s-1.1,1.1-1.9,1.1c-1,0-1.8-0.5-2.4-1.5c-0.6-1-0.9-2.6-0.9-4.6c0-1.1,0.1-2.1,0.2-3
			c0.2-0.9,0.4-1.7,0.6-2.4c0.3-0.7,0.5-1.4,0.9-1.9c0.3-0.6,0.7-1.1,1.1-1.6l-4.4-2.7c-0.7,1-1.3,2-1.8,3.1s-0.8,2.1-1.1,3.1
			s-0.4,2-0.5,2.9s-0.1,1.7-0.1,2.4c0,1.9,0.2,3.7,0.6,5.2c0.4,1.5,1,2.8,1.8,3.9c0.8,1,1.7,1.8,2.8,2.4s2.3,0.8,3.6,0.8
			C58.1,280.8,59.9,280,61.1,278.3z"/>
		<path class="st0" d="M71.4,333.3c1.2-1.1,2.2-2.5,2.9-4c0.7-1.6,1-3.3,1-5.2c0-2-0.3-3.8-1-5.4s-1.6-3.1-2.9-4.2
			c-1.2-1.2-2.7-2.1-4.5-2.8c-1.7-0.7-3.7-1-5.8-1s-4.1,0.3-5.8,1s-3.2,1.6-4.5,2.8c-1.2,1.2-2.2,2.7-2.9,4.4c-0.7,1.7-1,3.5-1,5.6
			c0,2,0.3,4,0.8,5.8c0.6,1.8,1.5,3.6,3,5.2l4.2-2.9c-0.9-1.1-1.6-2.4-2.1-3.7c-0.5-1.4-0.7-2.7-0.7-4.1c0-1,0.1-1.9,0.4-2.8
			c0.3-0.9,0.7-1.7,1.2-2.4c0.6-0.7,1.3-1.3,2.1-1.8c0.9-0.5,1.9-0.9,3.1-1v19.9c0.3,0,0.7,0.1,1.1,0.1c0.4,0,0.7,0,1.1,0
			c2.1,0,4-0.3,5.7-0.9C68.6,335.3,70.1,334.4,71.4,333.3z M63.4,316.9c1,0.2,1.9,0.4,2.7,0.8c0.8,0.4,1.5,0.9,2.1,1.4
			c0.6,0.6,1,1.3,1.4,2.1c0.3,0.8,0.5,1.7,0.5,2.8c0,1.9-0.6,3.4-1.7,4.6c-1.2,1.2-2.8,1.9-4.9,2.2L63.4,316.9L63.4,316.9z"/>
		<path class="st0" d="M71.3,411.4c1.2-0.9,2.2-2.1,2.9-3.5c0.7-1.4,1.1-3,1.1-5c0-1.9-0.4-3.7-1.1-5.3c-0.7-1.6-1.7-3.1-2.9-4.3
			c-1.3-1.2-2.8-2.2-4.5-2.9c-1.7-0.7-3.6-1-5.7-1c-2.1,0-4,0.3-5.7,1s-3.2,1.6-4.5,2.9c-1.3,1.2-2.2,2.6-2.9,4.3
			c-0.7,1.6-1.1,3.4-1.1,5.3s0.4,3.6,1.1,5s1.7,2.5,2.9,3.5h-3.2v5.9h26.9v-5.9H71.3z M57.7,411.2c-1-0.4-2-0.9-2.7-1.7
			c-0.8-0.7-1.4-1.6-1.8-2.6c-0.4-1-0.7-2.1-0.7-3.3c0-1.3,0.2-2.4,0.7-3.4s1.1-1.9,1.9-2.5c0.8-0.7,1.7-1.2,2.7-1.6
			s2.2-0.6,3.3-0.6c1.2,0,2.3,0.2,3.3,0.6s2,0.9,2.7,1.6c0.8,0.7,1.4,1.5,1.9,2.5s0.7,2.1,0.7,3.4c0,1.2-0.2,2.3-0.7,3.3
			c-0.4,1-1,1.8-1.8,2.6c-0.8,0.7-1.7,1.3-2.7,1.7c-1,0.4-2.2,0.6-3.4,0.6C59.9,411.8,58.7,411.6,57.7,411.2z"/>
		<path class="st0" d="M53,303.5c-0.4-0.9-0.5-1.9-0.5-2.8c0-0.6,0.1-1.2,0.3-1.7s0.5-1,0.9-1.3c0.4-0.4,0.9-0.7,1.6-0.9
			s1.4-0.3,2.3-0.3h11.7v9.4h5.3v-9.4h8.2v-5.9h-8.2v-5.4h-5.3v5.4H57.4c-3.6,0-6.2,0.8-7.9,2.5s-2.5,4.1-2.5,7.1
			c0,1.7,0.3,3.2,0.8,4.6c0.3,0.9,0.7,1.7,1.2,2.5l4.9-2C53.5,304.7,53.2,304.1,53,303.5z"/>
		<path class="st0" d="M75.3,356.6c0-1.6-0.3-3.1-0.9-4.5c-0.6-1.3-2-2.4-3.3-3.3h3.5v-5.3h-27v5.4h14.8c1.1,0,2.2,0.2,3.1,0.5
			s1.7,0.8,2.3,1.3c0.6,0.6,1.1,1.2,1.4,2s0.5,1.6,0.5,2.6c0,0.7-0.1,1.5-0.3,2.3c-0.1,0.4-0.2,0.8-0.3,1.2l5.6,1.7
			c0.1-0.5,0.3-0.9,0.4-1.4C75.2,358.3,75.3,357.5,75.3,356.6z"/>
		<path class="st0" d="M75.3,438.2c0-1.6-0.3-3.1-0.9-4.5c-0.6-1.3-2-2.4-3.3-3.3h3.5v-5.3h-27v5.4h14.8c1.1,0,2.2,0.2,3.1,0.5
			s1.7,0.8,2.3,1.3c0.6,0.6,1.1,1.2,1.4,2s0.5,1.6,0.5,2.6c0,0.7-0.1,1.5-0.3,2.3c-0.1,0.4-0.2,0.8-0.3,1.2l5.6,1.7
			c0.1-0.5,0.3-0.9,0.4-1.4C75.2,439.9,75.3,439.1,75.3,438.2z"/>
		<path class="st0" d="M85.5,465.7H71.3c1.2-0.9,2.2-2.1,2.9-3.5c0.7-1.4,1.1-3,1.1-5c0-1.9-0.4-3.7-1.1-5.3
			c-0.7-1.6-1.7-3.1-2.9-4.3c-1.3-1.2-2.8-2.2-4.5-2.9c-1.7-0.7-3.6-1-5.7-1c-2.1,0-4,0.3-5.7,1s-3.2,1.6-4.5,2.9
			c-1.3,1.2-2.2,2.6-2.9,4.3c-0.7,1.6-1.1,3.4-1.1,5.3s0.4,3.6,1.1,5c0.7,1.4,1.7,2.5,2.9,3.5h-3.2v5.9h37.9v-5.9H85.5z M57.7,465.5
			c-1-0.4-2-0.9-2.7-1.7c-0.8-0.7-1.4-1.6-1.8-2.6c-0.4-1-0.7-2.1-0.7-3.3c0-1.3,0.2-2.4,0.7-3.4s1.1-1.9,1.9-2.5
			c0.8-0.7,1.7-1.2,2.7-1.6s2.2-0.6,3.3-0.6c1.2,0,2.3,0.2,3.3,0.6s2,0.9,2.7,1.6c0.8,0.7,1.4,1.5,1.9,2.5s0.7,2.1,0.7,3.4
			c0,1.2-0.2,2.3-0.7,3.3c-0.4,1-1,1.8-1.8,2.6c-0.8,0.7-1.7,1.3-2.7,1.7c-1,0.4-2.2,0.6-3.4,0.6C59.9,466,58.7,465.9,57.7,465.5z"
			/>
		<path class="st0" d="M67.3,370.6c0.8,0.7,1.3,1.6,1.8,2.7c0.4,1,0.6,2.1,0.6,3.3l0,0c0,1.3-0.2,2.5-0.6,3.7c-0.4,1.1-1,2-1.7,2.9
			l4.7,2.8c0.8-1.1,1.5-2.3,2.1-3.6c0.7-1.8,1.1-3.7,1.1-5.8c0-2.1-0.4-4-1.1-5.8s-1.7-3.3-3-4.6c-1.3-1.3-2.8-2.3-4.5-3
			s-3.6-1.1-5.6-1.1s-3.9,0.4-5.6,1.1c-1.7,0.7-3.2,1.7-4.5,3s-2.3,2.8-3,4.6s-1.1,3.7-1.1,5.8c0,2.1,0.4,4,1.1,5.8
			c0.5,1.3,1.2,2.5,2.1,3.6l4.7-2.8c-0.7-0.8-1.3-1.8-1.7-2.9s-0.6-2.4-0.6-3.7l0,0c0-1.2,0.2-2.3,0.6-3.3c0.4-1,1-1.9,1.8-2.7
			c0.8-0.7,1.7-1.3,2.7-1.8c1.1-0.4,2.2-0.6,3.5-0.6s2.4,0.2,3.5,0.6C65.7,369.3,66.6,369.9,67.3,370.6z"/>
	</g>
	<path class="st1" d="M39.1,145.3h1.4v-0.6h0.4v1.5h-0.4v-0.6h-1.4V145.3z M39.1,148.2h1.2l-1.1-0.4v-0.4l1.1-0.4h-1.2v-0.4h1.8v0.6
		l-1.1,0.4l1.1,0.4v0.6h-1.8V148.2z"/>
	<g>
		<path class="st0" d="M50.2,478.9c0,0.3-0.1,0.6-0.2,0.8c-0.1,0.3-0.3,0.5-0.4,0.7c-0.2,0.2-0.4,0.3-0.7,0.5
			c-0.3,0.1-0.5,0.2-0.8,0.2s-0.5-0.1-0.8-0.2s-0.5-0.3-0.7-0.5s-0.3-0.4-0.4-0.7c-0.1-0.3-0.2-0.5-0.2-0.8s0.1-0.6,0.2-0.8
			c0.1-0.3,0.3-0.5,0.4-0.7c0.2-0.2,0.4-0.3,0.7-0.5c0.3-0.1,0.5-0.2,0.8-0.2s0.6,0.1,0.8,0.2c0.3,0.1,0.5,0.3,0.7,0.5
			s0.3,0.4,0.4,0.7C50.2,478.3,50.2,478.6,50.2,478.9z M46.7,478.9c0,0.2,0,0.4,0.1,0.6s0.2,0.3,0.3,0.5c0.1,0.1,0.3,0.2,0.5,0.3
			c0.2,0.1,0.4,0.1,0.6,0.1c0.2,0,0.4,0,0.6-0.1c0.2-0.1,0.3-0.2,0.5-0.3c0.1-0.1,0.2-0.3,0.3-0.5s0.1-0.4,0.1-0.6s0-0.4-0.1-0.6
			s-0.2-0.3-0.3-0.5c-0.1-0.1-0.3-0.2-0.5-0.3c-0.2-0.1-0.4-0.1-0.6-0.1c-0.2,0-0.4,0-0.6,0.1c-0.2,0.1-0.3,0.2-0.5,0.3
			c-0.1,0.1-0.2,0.3-0.3,0.5S46.7,478.7,46.7,478.9z M49.1,479c0,0.3-0.1,0.4-0.2,0.6c-0.1,0.1-0.3,0.2-0.4,0.2
			c-0.1,0-0.3,0-0.4-0.1c-0.1-0.1-0.2-0.2-0.2-0.4l-0.7,0.6v-0.6l0.6-0.5v-0.1h-0.6v-0.5H49L49.1,479L49.1,479z M48.6,478.6h-0.3
			v0.4c0,0.1,0,0.1,0,0.2l0.1,0.1c0.1,0,0.1,0,0.1-0.1c0,0,0-0.1,0-0.2v-0.4H48.6z"/>
	</g>
	<g>
		<path class="st2" d="M61.5,67.2c12.9,0,24.4,6,31.9,15.4c5.5-6.9,8.8-15.7,8.8-25.2c0-22.4-18.2-40.6-40.6-40.6S20.8,35,20.8,57.4
			c0,9.5,3.3,18.3,8.8,25.2C37,73.2,48.5,67.2,61.5,67.2z"/>
		<ellipse class="st3" cx="61.5" cy="82.6" rx="31.9" ry="15.4"/>
		<path class="st1" d="M39.5,145.7h1.2v-0.5H41v1.3h-0.3v-0.5h-1.2V145.7z M39.5,148.2h1.1l-0.9-0.3v-0.4l0.9-0.3h-1v-0.4H41v0.5
			l-1,0.4l1,0.4v0.5h-1.5V148.2z"/>
		<path class="st1" d="M102.1,107.8c0-9.5-3.3-18.3-8.8-25.2C85.9,92,74.4,98.1,61.5,98.1S37,92,29.6,82.6
			c-5.5,6.9-8.8,15.7-8.8,25.2c0,22.4,18.2,40.6,40.6,40.6S102.1,130.3,102.1,107.8z"/>
	</g>
</g>
</svg>
